%TF.GenerationSoftware,KiCad,Pcbnew,8.0.3-8.0.3-0~ubuntu23.10.1*%
%TF.CreationDate,2024-09-16T17:13:33+03:00*%
%TF.ProjectId,Raspberry Pi 5 shield,52617370-6265-4727-9279-205069203520,rev?*%
%TF.SameCoordinates,Original*%
%TF.FileFunction,Soldermask,Top*%
%TF.FilePolarity,Negative*%
%FSLAX46Y46*%
G04 Gerber Fmt 4.6, Leading zero omitted, Abs format (unit mm)*
G04 Created by KiCad (PCBNEW 8.0.3-8.0.3-0~ubuntu23.10.1) date 2024-09-16 17:13:33*
%MOMM*%
%LPD*%
G01*
G04 APERTURE LIST*
G04 Aperture macros list*
%AMRoundRect*
0 Rectangle with rounded corners*
0 $1 Rounding radius*
0 $2 $3 $4 $5 $6 $7 $8 $9 X,Y pos of 4 corners*
0 Add a 4 corners polygon primitive as box body*
4,1,4,$2,$3,$4,$5,$6,$7,$8,$9,$2,$3,0*
0 Add four circle primitives for the rounded corners*
1,1,$1+$1,$2,$3*
1,1,$1+$1,$4,$5*
1,1,$1+$1,$6,$7*
1,1,$1+$1,$8,$9*
0 Add four rect primitives between the rounded corners*
20,1,$1+$1,$2,$3,$4,$5,0*
20,1,$1+$1,$4,$5,$6,$7,0*
20,1,$1+$1,$6,$7,$8,$9,0*
20,1,$1+$1,$8,$9,$2,$3,0*%
G04 Aperture macros list end*
%ADD10RoundRect,0.250000X0.337500X0.475000X-0.337500X0.475000X-0.337500X-0.475000X0.337500X-0.475000X0*%
%ADD11RoundRect,0.250000X0.450000X-0.350000X0.450000X0.350000X-0.450000X0.350000X-0.450000X-0.350000X0*%
%ADD12RoundRect,0.250000X0.350000X0.450000X-0.350000X0.450000X-0.350000X-0.450000X0.350000X-0.450000X0*%
%ADD13RoundRect,0.250000X-0.450000X0.350000X-0.450000X-0.350000X0.450000X-0.350000X0.450000X0.350000X0*%
%ADD14R,1.400000X1.200000*%
%ADD15C,1.900000*%
%ADD16C,3.200000*%
%ADD17RoundRect,0.150000X0.150000X-0.587500X0.150000X0.587500X-0.150000X0.587500X-0.150000X-0.587500X0*%
%ADD18RoundRect,0.250000X0.475000X-0.337500X0.475000X0.337500X-0.475000X0.337500X-0.475000X-0.337500X0*%
%ADD19RoundRect,0.250001X1.099999X1.399999X-1.099999X1.399999X-1.099999X-1.399999X1.099999X-1.399999X0*%
%ADD20O,2.700000X3.300000*%
%ADD21RoundRect,0.250000X-0.350000X-0.450000X0.350000X-0.450000X0.350000X0.450000X-0.350000X0.450000X0*%
%ADD22RoundRect,0.250000X-0.450000X0.325000X-0.450000X-0.325000X0.450000X-0.325000X0.450000X0.325000X0*%
%ADD23RoundRect,0.250000X1.750000X1.000000X-1.750000X1.000000X-1.750000X-1.000000X1.750000X-1.000000X0*%
%ADD24RoundRect,0.250000X-1.000000X1.750000X-1.000000X-1.750000X1.000000X-1.750000X1.000000X1.750000X0*%
%ADD25R,0.800000X0.400000*%
%ADD26RoundRect,0.250000X0.325000X0.450000X-0.325000X0.450000X-0.325000X-0.450000X0.325000X-0.450000X0*%
%ADD27RoundRect,0.250000X-0.475000X0.337500X-0.475000X-0.337500X0.475000X-0.337500X0.475000X0.337500X0*%
%ADD28RoundRect,0.150000X0.150000X-0.875000X0.150000X0.875000X-0.150000X0.875000X-0.150000X-0.875000X0*%
%ADD29R,0.900000X1.900000*%
%ADD30R,1.700000X1.700000*%
%ADD31O,1.700000X1.700000*%
G04 APERTURE END LIST*
D10*
%TO.C,C3*%
X135149500Y-100704000D03*
X133074500Y-100704000D03*
%TD*%
D11*
%TO.C,R6*%
X107442000Y-90872000D03*
X107442000Y-88872000D03*
%TD*%
D12*
%TO.C,R4*%
X151114000Y-79876000D03*
X149114000Y-79876000D03*
%TD*%
D10*
%TO.C,C1*%
X124266400Y-86988000D03*
X122191400Y-86988000D03*
%TD*%
D13*
%TO.C,R2*%
X142240000Y-73796000D03*
X142240000Y-75796000D03*
%TD*%
D14*
%TO.C,Y1*%
X138130000Y-87862000D03*
X135930000Y-87862000D03*
X135930000Y-89562000D03*
X138130000Y-89562000D03*
%TD*%
D15*
%TO.C,PS1*%
X157734000Y-104976000D03*
X152654000Y-104976000D03*
X165354000Y-84656000D03*
X155194000Y-84656000D03*
X145034000Y-84656000D03*
X145034000Y-104976000D03*
%TD*%
D16*
%TO.C,H6*%
X107640000Y-112540000D03*
%TD*%
D10*
%TO.C,C2*%
X128330400Y-86988000D03*
X126255400Y-86988000D03*
%TD*%
D17*
%TO.C,D2*%
X127790500Y-105685000D03*
X129690500Y-105685000D03*
X128740500Y-103810000D03*
%TD*%
D10*
%TO.C,C10*%
X137943500Y-91560000D03*
X135868500Y-91560000D03*
%TD*%
D18*
%TO.C,C6*%
X125692500Y-108149500D03*
X125692500Y-106074500D03*
%TD*%
D19*
%TO.C,J3*%
X144780000Y-118291000D03*
D20*
X140598000Y-118291000D03*
X136398000Y-118291000D03*
X132207000Y-118291000D03*
X127998000Y-118291000D03*
X144780000Y-114091000D03*
X140598000Y-114091000D03*
X136398000Y-114091000D03*
X132207000Y-114091000D03*
X127998000Y-114091000D03*
%TD*%
D11*
%TO.C,R1*%
X144526000Y-75796000D03*
X144526000Y-73796000D03*
%TD*%
D21*
%TO.C,R3*%
X127762000Y-108128000D03*
X129762000Y-108128000D03*
%TD*%
D22*
%TO.C,D4*%
X107442000Y-93592000D03*
X107442000Y-95642000D03*
%TD*%
D23*
%TO.C,C13*%
X158940000Y-114928000D03*
X150940000Y-114928000D03*
%TD*%
D24*
%TO.C,C7*%
X122174000Y-75368000D03*
X122174000Y-83368000D03*
%TD*%
D25*
%TO.C,FL1*%
X129928000Y-101862000D03*
X129928000Y-100562000D03*
X127628000Y-100562000D03*
X127628000Y-101862000D03*
%TD*%
D12*
%TO.C,R5*%
X165338000Y-116706000D03*
X163338000Y-116706000D03*
%TD*%
D26*
%TO.C,D3*%
X165363000Y-118738000D03*
X163313000Y-118738000D03*
%TD*%
D18*
%TO.C,C8*%
X140208000Y-90057500D03*
X140208000Y-87982500D03*
%TD*%
D27*
%TO.C,C12*%
X142240000Y-77822500D03*
X142240000Y-79897500D03*
%TD*%
D11*
%TO.C,R7*%
X110490000Y-90872000D03*
X110490000Y-88872000D03*
%TD*%
D28*
%TO.C,U1*%
X129032000Y-84526000D03*
X130302000Y-84526000D03*
X131572000Y-84526000D03*
X132842000Y-84526000D03*
X134112000Y-84526000D03*
X135382000Y-84526000D03*
X136652000Y-84526000D03*
X137922000Y-84526000D03*
X139192000Y-84526000D03*
X139192000Y-75226000D03*
X137922000Y-75226000D03*
X136652000Y-75226000D03*
X135382000Y-75226000D03*
X134112000Y-75226000D03*
X132842000Y-75226000D03*
X131572000Y-75226000D03*
X130302000Y-75226000D03*
X129032000Y-75226000D03*
%TD*%
D29*
%TO.C,D1*%
X134023900Y-89496000D03*
X132753900Y-89496000D03*
X131483900Y-89496000D03*
X130213900Y-89496000D03*
X128943900Y-89496000D03*
X127673900Y-89496000D03*
X126403900Y-89496000D03*
X125133900Y-89496000D03*
X123863900Y-89496000D03*
X122593900Y-89496000D03*
X122593900Y-98196000D03*
X123863900Y-98196000D03*
X125133900Y-98196000D03*
X126403900Y-98196000D03*
X127673900Y-98196000D03*
X128943900Y-98196000D03*
X130213900Y-98196000D03*
X131483900Y-98196000D03*
X132753900Y-98196000D03*
X134023900Y-98196000D03*
%TD*%
D22*
%TO.C,D5*%
X110482000Y-93592000D03*
X110482000Y-95642000D03*
%TD*%
D27*
%TO.C,C5*%
X131810000Y-106074500D03*
X131810000Y-108149500D03*
%TD*%
D24*
%TO.C,C9*%
X110998000Y-75368000D03*
X110998000Y-83368000D03*
%TD*%
D10*
%TO.C,C4*%
X123465500Y-100704000D03*
X121390500Y-100704000D03*
%TD*%
D16*
%TO.C,H5*%
X165640000Y-75540000D03*
%TD*%
D30*
%TO.C,J2*%
X164370000Y-111270000D03*
D31*
X166910000Y-111270000D03*
X164370000Y-113810000D03*
X166910000Y-113810000D03*
%TD*%
D30*
%TO.C,J1*%
X112510000Y-70810000D03*
D31*
X112510000Y-68270000D03*
X115050000Y-70810000D03*
X115050000Y-68270000D03*
X117590000Y-70810000D03*
X117590000Y-68270000D03*
X120130000Y-70810000D03*
X120130000Y-68270000D03*
X122670000Y-70810000D03*
X122670000Y-68270000D03*
X125210000Y-70810000D03*
X125210000Y-68270000D03*
X127750000Y-70810000D03*
X127750000Y-68270000D03*
X130290000Y-70810000D03*
X130290000Y-68270000D03*
X132830000Y-70810000D03*
X132830000Y-68270000D03*
X135370000Y-70810000D03*
X135370000Y-68270000D03*
X137910000Y-70810000D03*
X137910000Y-68270000D03*
X140450000Y-70810000D03*
X140450000Y-68270000D03*
X142990000Y-70810000D03*
X142990000Y-68270000D03*
X145530000Y-70810000D03*
X145530000Y-68270000D03*
X148070000Y-70810000D03*
X148070000Y-68270000D03*
X150610000Y-70810000D03*
X150610000Y-68270000D03*
X153150000Y-70810000D03*
X153150000Y-68270000D03*
X155690000Y-70810000D03*
X155690000Y-68270000D03*
X158230000Y-70810000D03*
X158230000Y-68270000D03*
X160770000Y-70810000D03*
X160770000Y-68270000D03*
%TD*%
M02*
