%TF.GenerationSoftware,KiCad,Pcbnew,8.0.3-8.0.3-0~ubuntu23.10.1*%
%TF.CreationDate,2024-09-16T17:13:33+03:00*%
%TF.ProjectId,Raspberry Pi 5 shield,52617370-6265-4727-9279-205069203520,rev?*%
%TF.SameCoordinates,Original*%
%TF.FileFunction,Copper,L4,Bot*%
%TF.FilePolarity,Positive*%
%FSLAX46Y46*%
G04 Gerber Fmt 4.6, Leading zero omitted, Abs format (unit mm)*
G04 Created by KiCad (PCBNEW 8.0.3-8.0.3-0~ubuntu23.10.1) date 2024-09-16 17:13:33*
%MOMM*%
%LPD*%
G01*
G04 APERTURE LIST*
G04 Aperture macros list*
%AMRoundRect*
0 Rectangle with rounded corners*
0 $1 Rounding radius*
0 $2 $3 $4 $5 $6 $7 $8 $9 X,Y pos of 4 corners*
0 Add a 4 corners polygon primitive as box body*
4,1,4,$2,$3,$4,$5,$6,$7,$8,$9,$2,$3,0*
0 Add four circle primitives for the rounded corners*
1,1,$1+$1,$2,$3*
1,1,$1+$1,$4,$5*
1,1,$1+$1,$6,$7*
1,1,$1+$1,$8,$9*
0 Add four rect primitives between the rounded corners*
20,1,$1+$1,$2,$3,$4,$5,0*
20,1,$1+$1,$4,$5,$6,$7,0*
20,1,$1+$1,$6,$7,$8,$9,0*
20,1,$1+$1,$8,$9,$2,$3,0*%
G04 Aperture macros list end*
%TA.AperFunction,ComponentPad*%
%ADD10C,1.900000*%
%TD*%
%TA.AperFunction,ComponentPad*%
%ADD11RoundRect,0.250001X1.099999X1.399999X-1.099999X1.399999X-1.099999X-1.399999X1.099999X-1.399999X0*%
%TD*%
%TA.AperFunction,ComponentPad*%
%ADD12O,2.700000X3.300000*%
%TD*%
%TA.AperFunction,ComponentPad*%
%ADD13R,1.700000X1.700000*%
%TD*%
%TA.AperFunction,ComponentPad*%
%ADD14O,1.700000X1.700000*%
%TD*%
%TA.AperFunction,SMDPad,CuDef*%
%ADD15RoundRect,0.250000X-0.475000X0.337500X-0.475000X-0.337500X0.475000X-0.337500X0.475000X0.337500X0*%
%TD*%
%TA.AperFunction,ViaPad*%
%ADD16C,0.600000*%
%TD*%
%TA.AperFunction,Conductor*%
%ADD17C,0.500000*%
%TD*%
G04 APERTURE END LIST*
D10*
%TO.P,PS1,1,+VIN*%
%TO.N,+24V*%
X157734000Y-104976000D03*
%TO.P,PS1,2,-VIN*%
%TO.N,GNDPWR*%
X152654000Y-104976000D03*
%TO.P,PS1,3,+VOUT*%
%TO.N,+5V*%
X165354000Y-84656000D03*
%TO.P,PS1,4,TRIM*%
%TO.N,Net-(PS1-TRIM)*%
X155194000Y-84656000D03*
%TO.P,PS1,5,-VOUT*%
%TO.N,GND*%
X145034000Y-84656000D03*
%TO.P,PS1,6,R.C.*%
%TO.N,unconnected-(PS1-R.C.-Pad6)*%
X145034000Y-104976000D03*
%TD*%
D11*
%TO.P,J3,1,Pin_1*%
%TO.N,+24V*%
X144780000Y-118291000D03*
D12*
%TO.P,J3,2,Pin_2*%
%TO.N,unconnected-(J3-Pin_2-Pad2)*%
X140598000Y-118291000D03*
%TO.P,J3,3,Pin_3*%
%TO.N,unconnected-(J3-Pin_3-Pad3)*%
X136398000Y-118291000D03*
%TO.P,J3,4,Pin_4*%
%TO.N,unconnected-(J3-Pin_4-Pad4)*%
X132207000Y-118291000D03*
%TO.P,J3,5,Pin_5*%
%TO.N,unconnected-(J3-Pin_5-Pad5)*%
X127998000Y-118291000D03*
%TO.P,J3,6,Pin_6*%
%TO.N,GNDPWR*%
X144780000Y-114091000D03*
%TO.P,J3,7,Pin_7*%
%TO.N,unconnected-(J3-Pin_7-Pad7)*%
X140598000Y-114091000D03*
%TO.P,J3,8,Pin_8*%
%TO.N,CANH*%
X136398000Y-114091000D03*
%TO.P,J3,9,Pin_9*%
%TO.N,CANL*%
X132207000Y-114091000D03*
%TO.P,J3,10,Pin_10*%
%TO.N,GND_CAN*%
X127998000Y-114091000D03*
%TD*%
D13*
%TO.P,J2,1,Pin_1*%
%TO.N,unconnected-(J2-Pin_1-Pad1)*%
X164370000Y-111270000D03*
D14*
%TO.P,J2,2,Pin_2*%
%TO.N,unconnected-(J2-Pin_2-Pad2)*%
X166910000Y-111270000D03*
%TO.P,J2,3,Pin_3*%
%TO.N,unconnected-(J2-Pin_3-Pad3)*%
X164370000Y-113810000D03*
%TO.P,J2,4,Pin_4*%
%TO.N,unconnected-(J2-Pin_4-Pad4)*%
X166910000Y-113810000D03*
%TD*%
D13*
%TO.P,J1,1,Pin_1*%
%TO.N,+3.3V*%
X112510000Y-70810000D03*
D14*
%TO.P,J1,2,Pin_2*%
%TO.N,+5V*%
X112510000Y-68270000D03*
%TO.P,J1,3,Pin_3*%
%TO.N,unconnected-(J1-Pin_3-Pad3)*%
X115050000Y-70810000D03*
%TO.P,J1,4,Pin_4*%
%TO.N,+5V*%
X115050000Y-68270000D03*
%TO.P,J1,5,Pin_5*%
%TO.N,unconnected-(J1-Pin_5-Pad5)*%
X117590000Y-70810000D03*
%TO.P,J1,6,Pin_6*%
%TO.N,GND*%
X117590000Y-68270000D03*
%TO.P,J1,7,Pin_7*%
%TO.N,unconnected-(J1-Pin_7-Pad7)*%
X120130000Y-70810000D03*
%TO.P,J1,8,Pin_8*%
%TO.N,unconnected-(J1-Pin_8-Pad8)*%
X120130000Y-68270000D03*
%TO.P,J1,9,Pin_9*%
%TO.N,GND*%
X122670000Y-70810000D03*
%TO.P,J1,10,Pin_10*%
%TO.N,unconnected-(J1-Pin_10-Pad10)*%
X122670000Y-68270000D03*
%TO.P,J1,11,Pin_11*%
%TO.N,GPIO_17*%
X125210000Y-70810000D03*
%TO.P,J1,12,Pin_12*%
%TO.N,GPIO_18*%
X125210000Y-68270000D03*
%TO.P,J1,13,Pin_13*%
%TO.N,GPIO_27*%
X127750000Y-70810000D03*
%TO.P,J1,14,Pin_14*%
%TO.N,GND*%
X127750000Y-68270000D03*
%TO.P,J1,15,Pin_15*%
%TO.N,GPIO_22*%
X130290000Y-70810000D03*
%TO.P,J1,16,Pin_16*%
%TO.N,GPIO_23*%
X130290000Y-68270000D03*
%TO.P,J1,17,Pin_17*%
%TO.N,+3.3V*%
X132830000Y-70810000D03*
%TO.P,J1,18,Pin_18*%
%TO.N,GPIO_24*%
X132830000Y-68270000D03*
%TO.P,J1,19,Pin_19*%
%TO.N,SPI_MOSI*%
X135370000Y-70810000D03*
%TO.P,J1,20,Pin_20*%
%TO.N,GND*%
X135370000Y-68270000D03*
%TO.P,J1,21,Pin_21*%
%TO.N,SPI_MISO*%
X137910000Y-70810000D03*
%TO.P,J1,22,Pin_22*%
%TO.N,~{INT}*%
X137910000Y-68270000D03*
%TO.P,J1,23,Pin_23*%
%TO.N,SPI_SCLK*%
X140450000Y-70810000D03*
%TO.P,J1,24,Pin_24*%
%TO.N,CE0*%
X140450000Y-68270000D03*
%TO.P,J1,25,Pin_25*%
%TO.N,GND*%
X142990000Y-70810000D03*
%TO.P,J1,26,Pin_26*%
%TO.N,CE1*%
X142990000Y-68270000D03*
%TO.P,J1,27,Pin_27*%
%TO.N,unconnected-(J1-Pin_27-Pad27)*%
X145530000Y-70810000D03*
%TO.P,J1,28,Pin_28*%
%TO.N,unconnected-(J1-Pin_28-Pad28)*%
X145530000Y-68270000D03*
%TO.P,J1,29,Pin_29*%
%TO.N,GPIO_5*%
X148070000Y-70810000D03*
%TO.P,J1,30,Pin_30*%
%TO.N,GND*%
X148070000Y-68270000D03*
%TO.P,J1,31,Pin_31*%
%TO.N,GPIO_6*%
X150610000Y-70810000D03*
%TO.P,J1,32,Pin_32*%
%TO.N,GPIO_12*%
X150610000Y-68270000D03*
%TO.P,J1,33,Pin_33*%
%TO.N,GPIO_13*%
X153150000Y-70810000D03*
%TO.P,J1,34,Pin_34*%
%TO.N,GND*%
X153150000Y-68270000D03*
%TO.P,J1,35,Pin_35*%
%TO.N,GPIO_19*%
X155690000Y-70810000D03*
%TO.P,J1,36,Pin_36*%
%TO.N,GPIO_16*%
X155690000Y-68270000D03*
%TO.P,J1,37,Pin_37*%
%TO.N,GPIO_26*%
X158230000Y-70810000D03*
%TO.P,J1,38,Pin_38*%
%TO.N,GPIO_20*%
X158230000Y-68270000D03*
%TO.P,J1,39,Pin_39*%
%TO.N,GND*%
X160770000Y-70810000D03*
%TO.P,J1,40,Pin_40*%
%TO.N,GPIO_21*%
X160770000Y-68270000D03*
%TD*%
D15*
%TO.P,C11,1*%
%TO.N,+3.3V*%
X129032000Y-78584500D03*
%TO.P,C11,2*%
%TO.N,GND*%
X129032000Y-80659500D03*
%TD*%
D16*
%TO.N,GNDPWR*%
X162306000Y-116706000D03*
%TO.N,Net-(D1-Visoin)*%
X133096000Y-101974000D03*
X123444000Y-101974000D03*
%TO.N,+5V*%
X124714000Y-85718000D03*
X126238000Y-76320000D03*
X126238000Y-74796000D03*
X108712000Y-76320000D03*
X147828000Y-75304000D03*
X147828000Y-73018000D03*
X147828000Y-76066000D03*
X126238000Y-73272000D03*
X108712000Y-77082000D03*
X147828000Y-73780000D03*
X147828000Y-74542000D03*
X107442000Y-96640000D03*
X147828000Y-76828000D03*
X126238000Y-75558000D03*
X126238000Y-74034000D03*
X126238000Y-77082000D03*
%TO.N,+3.3V*%
X127762000Y-85718000D03*
X145796000Y-73780000D03*
X129032000Y-76828000D03*
X110490000Y-96640000D03*
%TO.N,GND*%
X122174000Y-80892000D03*
X110998000Y-80892000D03*
X139192000Y-85972000D03*
X135890000Y-86734000D03*
X140208000Y-91560000D03*
X123952000Y-83432000D03*
X110998000Y-85972000D03*
X147828000Y-79876000D03*
X112776000Y-83432000D03*
X120396000Y-83432000D03*
X140970000Y-79876000D03*
X109220000Y-83432000D03*
%TO.N,GND_CAN*%
X133096000Y-106038000D03*
X136144000Y-100704000D03*
X120396000Y-100704000D03*
X124460000Y-106038000D03*
%TO.N,+24V*%
X162306000Y-118738000D03*
%TD*%
D17*
%TO.N,GNDPWR*%
X162306000Y-116706000D02*
X159691000Y-114091000D01*
X159691000Y-114091000D02*
X144780000Y-114091000D01*
%TO.N,+3.3V*%
X129032000Y-78584500D02*
X129032000Y-76828000D01*
%TO.N,+24V*%
X162306000Y-118738000D02*
X161798000Y-118738000D01*
X161798000Y-118738000D02*
X161351000Y-118291000D01*
X161351000Y-118291000D02*
X144780000Y-118291000D01*
%TD*%
%TA.AperFunction,Conductor*%
%TO.N,GND*%
G36*
X122477007Y-70344075D02*
G01*
X122362993Y-70409901D01*
X122269901Y-70502993D01*
X122204075Y-70617007D01*
X122170000Y-70744174D01*
X122170000Y-70434000D01*
X122189685Y-70366961D01*
X122242489Y-70321206D01*
X122294000Y-70310000D01*
X122604174Y-70310000D01*
X122477007Y-70344075D01*
G37*
%TD.AperFunction*%
%TA.AperFunction,Conductor*%
G36*
X123113039Y-70329685D02*
G01*
X123158794Y-70382489D01*
X123170000Y-70434000D01*
X123170000Y-70744174D01*
X123135925Y-70617007D01*
X123070099Y-70502993D01*
X122977007Y-70409901D01*
X122862993Y-70344075D01*
X122735826Y-70310000D01*
X123046000Y-70310000D01*
X123113039Y-70329685D01*
G37*
%TD.AperFunction*%
%TA.AperFunction,Conductor*%
G36*
X142797007Y-70344075D02*
G01*
X142682993Y-70409901D01*
X142589901Y-70502993D01*
X142524075Y-70617007D01*
X142490000Y-70744174D01*
X142490000Y-70434000D01*
X142509685Y-70366961D01*
X142562489Y-70321206D01*
X142614000Y-70310000D01*
X142924174Y-70310000D01*
X142797007Y-70344075D01*
G37*
%TD.AperFunction*%
%TA.AperFunction,Conductor*%
G36*
X143433039Y-70329685D02*
G01*
X143478794Y-70382489D01*
X143490000Y-70434000D01*
X143490000Y-70744174D01*
X143455925Y-70617007D01*
X143390099Y-70502993D01*
X143297007Y-70409901D01*
X143182993Y-70344075D01*
X143055826Y-70310000D01*
X143366000Y-70310000D01*
X143433039Y-70329685D01*
G37*
%TD.AperFunction*%
%TA.AperFunction,Conductor*%
G36*
X160577007Y-70344075D02*
G01*
X160462993Y-70409901D01*
X160369901Y-70502993D01*
X160304075Y-70617007D01*
X160270000Y-70744174D01*
X160270000Y-70434000D01*
X160289685Y-70366961D01*
X160342489Y-70321206D01*
X160394000Y-70310000D01*
X160704174Y-70310000D01*
X160577007Y-70344075D01*
G37*
%TD.AperFunction*%
%TA.AperFunction,Conductor*%
G36*
X117124075Y-68462993D02*
G01*
X117189901Y-68577007D01*
X117282993Y-68670099D01*
X117397007Y-68735925D01*
X117524174Y-68770000D01*
X117214000Y-68770000D01*
X117146961Y-68750315D01*
X117101206Y-68697511D01*
X117090000Y-68646000D01*
X117090000Y-68335826D01*
X117124075Y-68462993D01*
G37*
%TD.AperFunction*%
%TA.AperFunction,Conductor*%
G36*
X118090000Y-68646000D02*
G01*
X118070315Y-68713039D01*
X118017511Y-68758794D01*
X117966000Y-68770000D01*
X117655826Y-68770000D01*
X117782993Y-68735925D01*
X117897007Y-68670099D01*
X117990099Y-68577007D01*
X118055925Y-68462993D01*
X118090000Y-68335826D01*
X118090000Y-68646000D01*
G37*
%TD.AperFunction*%
%TA.AperFunction,Conductor*%
G36*
X127284075Y-68462993D02*
G01*
X127349901Y-68577007D01*
X127442993Y-68670099D01*
X127557007Y-68735925D01*
X127684174Y-68770000D01*
X127374000Y-68770000D01*
X127306961Y-68750315D01*
X127261206Y-68697511D01*
X127250000Y-68646000D01*
X127250000Y-68335826D01*
X127284075Y-68462993D01*
G37*
%TD.AperFunction*%
%TA.AperFunction,Conductor*%
G36*
X128250000Y-68646000D02*
G01*
X128230315Y-68713039D01*
X128177511Y-68758794D01*
X128126000Y-68770000D01*
X127815826Y-68770000D01*
X127942993Y-68735925D01*
X128057007Y-68670099D01*
X128150099Y-68577007D01*
X128215925Y-68462993D01*
X128250000Y-68335826D01*
X128250000Y-68646000D01*
G37*
%TD.AperFunction*%
%TA.AperFunction,Conductor*%
G36*
X134904075Y-68462993D02*
G01*
X134969901Y-68577007D01*
X135062993Y-68670099D01*
X135177007Y-68735925D01*
X135304174Y-68770000D01*
X134994000Y-68770000D01*
X134926961Y-68750315D01*
X134881206Y-68697511D01*
X134870000Y-68646000D01*
X134870000Y-68335826D01*
X134904075Y-68462993D01*
G37*
%TD.AperFunction*%
%TA.AperFunction,Conductor*%
G36*
X135870000Y-68646000D02*
G01*
X135850315Y-68713039D01*
X135797511Y-68758794D01*
X135746000Y-68770000D01*
X135435826Y-68770000D01*
X135562993Y-68735925D01*
X135677007Y-68670099D01*
X135770099Y-68577007D01*
X135835925Y-68462993D01*
X135870000Y-68335826D01*
X135870000Y-68646000D01*
G37*
%TD.AperFunction*%
%TA.AperFunction,Conductor*%
G36*
X147604075Y-68462993D02*
G01*
X147669901Y-68577007D01*
X147762993Y-68670099D01*
X147877007Y-68735925D01*
X148004174Y-68770000D01*
X147694000Y-68770000D01*
X147626961Y-68750315D01*
X147581206Y-68697511D01*
X147570000Y-68646000D01*
X147570000Y-68335826D01*
X147604075Y-68462993D01*
G37*
%TD.AperFunction*%
%TA.AperFunction,Conductor*%
G36*
X148570000Y-68646000D02*
G01*
X148550315Y-68713039D01*
X148497511Y-68758794D01*
X148446000Y-68770000D01*
X148135826Y-68770000D01*
X148262993Y-68735925D01*
X148377007Y-68670099D01*
X148470099Y-68577007D01*
X148535925Y-68462993D01*
X148570000Y-68335826D01*
X148570000Y-68646000D01*
G37*
%TD.AperFunction*%
%TA.AperFunction,Conductor*%
G36*
X152684075Y-68462993D02*
G01*
X152749901Y-68577007D01*
X152842993Y-68670099D01*
X152957007Y-68735925D01*
X153084174Y-68770000D01*
X152774000Y-68770000D01*
X152706961Y-68750315D01*
X152661206Y-68697511D01*
X152650000Y-68646000D01*
X152650000Y-68335826D01*
X152684075Y-68462993D01*
G37*
%TD.AperFunction*%
%TA.AperFunction,Conductor*%
G36*
X153650000Y-68646000D02*
G01*
X153630315Y-68713039D01*
X153577511Y-68758794D01*
X153526000Y-68770000D01*
X153215826Y-68770000D01*
X153342993Y-68735925D01*
X153457007Y-68670099D01*
X153550099Y-68577007D01*
X153615925Y-68462993D01*
X153650000Y-68335826D01*
X153650000Y-68646000D01*
G37*
%TD.AperFunction*%
%TA.AperFunction,Conductor*%
G36*
X165653806Y-66528623D02*
G01*
X165957267Y-66545503D01*
X165970088Y-66546889D01*
X166267193Y-66594783D01*
X166279808Y-66597499D01*
X166570301Y-66676049D01*
X166582559Y-66680060D01*
X166835371Y-66777637D01*
X166863296Y-66788416D01*
X166875093Y-66793691D01*
X167143022Y-66930672D01*
X167154203Y-66937145D01*
X167398944Y-67096400D01*
X167406415Y-67101261D01*
X167416862Y-67108862D01*
X167568166Y-67231501D01*
X167650633Y-67298344D01*
X167660234Y-67306993D01*
X167873007Y-67519766D01*
X167881656Y-67529367D01*
X168071132Y-67763131D01*
X168078733Y-67773578D01*
X168168521Y-67911562D01*
X168242859Y-68025802D01*
X168249332Y-68036985D01*
X168255504Y-68049058D01*
X168386307Y-68304904D01*
X168391582Y-68316700D01*
X168499934Y-68597427D01*
X168503953Y-68609709D01*
X168582500Y-68900187D01*
X168585219Y-68912820D01*
X168633109Y-69209897D01*
X168634498Y-69222745D01*
X168651377Y-69526200D01*
X168651568Y-69533087D01*
X168651568Y-91343010D01*
X168631883Y-91410049D01*
X168585728Y-91452525D01*
X168542852Y-91475295D01*
X168520310Y-91484554D01*
X168355536Y-91533967D01*
X168331620Y-91538640D01*
X168154236Y-91555455D01*
X168142050Y-91556007D01*
X105290069Y-91310491D01*
X105142170Y-91309913D01*
X105130057Y-91309273D01*
X105058197Y-91301930D01*
X104953677Y-91291249D01*
X104929912Y-91286437D01*
X104766259Y-91236226D01*
X104743882Y-91226880D01*
X104700444Y-91203511D01*
X104650732Y-91154414D01*
X104635193Y-91094283D01*
X104636516Y-85717996D01*
X123908435Y-85717996D01*
X123908435Y-85718003D01*
X123928630Y-85897249D01*
X123928631Y-85897254D01*
X123988211Y-86067523D01*
X124084184Y-86220262D01*
X124211738Y-86347816D01*
X124364478Y-86443789D01*
X124534745Y-86503368D01*
X124534750Y-86503369D01*
X124713996Y-86523565D01*
X124714000Y-86523565D01*
X124714004Y-86523565D01*
X124893249Y-86503369D01*
X124893252Y-86503368D01*
X124893255Y-86503368D01*
X125063522Y-86443789D01*
X125216262Y-86347816D01*
X125343816Y-86220262D01*
X125439789Y-86067522D01*
X125499368Y-85897255D01*
X125501935Y-85874472D01*
X125519565Y-85718003D01*
X125519565Y-85717996D01*
X126956435Y-85717996D01*
X126956435Y-85718003D01*
X126976630Y-85897249D01*
X126976631Y-85897254D01*
X127036211Y-86067523D01*
X127132184Y-86220262D01*
X127259738Y-86347816D01*
X127412478Y-86443789D01*
X127582745Y-86503368D01*
X127582750Y-86503369D01*
X127761996Y-86523565D01*
X127762000Y-86523565D01*
X127762004Y-86523565D01*
X127941249Y-86503369D01*
X127941252Y-86503368D01*
X127941255Y-86503368D01*
X128111522Y-86443789D01*
X128264262Y-86347816D01*
X128391816Y-86220262D01*
X128487789Y-86067522D01*
X128520489Y-85974072D01*
X144423032Y-85974072D01*
X144423033Y-85974073D01*
X144449541Y-85988420D01*
X144449548Y-85988423D01*
X144676823Y-86066446D01*
X144913851Y-86106000D01*
X145154149Y-86106000D01*
X145391176Y-86066446D01*
X145618443Y-85988426D01*
X145618456Y-85988420D01*
X145644965Y-85974073D01*
X145644965Y-85974072D01*
X145034001Y-85363107D01*
X145034000Y-85363107D01*
X144423032Y-85974072D01*
X128520489Y-85974072D01*
X128547368Y-85897255D01*
X128549935Y-85874472D01*
X128567565Y-85718003D01*
X128567565Y-85717996D01*
X128547369Y-85538750D01*
X128547368Y-85538745D01*
X128487788Y-85368476D01*
X128422822Y-85265084D01*
X128391816Y-85215738D01*
X128264262Y-85088184D01*
X128235881Y-85070351D01*
X128111523Y-84992211D01*
X127941254Y-84932631D01*
X127941249Y-84932630D01*
X127762004Y-84912435D01*
X127761996Y-84912435D01*
X127582750Y-84932630D01*
X127582745Y-84932631D01*
X127412476Y-84992211D01*
X127259737Y-85088184D01*
X127132184Y-85215737D01*
X127036211Y-85368476D01*
X126976631Y-85538745D01*
X126976630Y-85538750D01*
X126956435Y-85717996D01*
X125519565Y-85717996D01*
X125499369Y-85538750D01*
X125499368Y-85538745D01*
X125439788Y-85368476D01*
X125374822Y-85265084D01*
X125343816Y-85215738D01*
X125216262Y-85088184D01*
X125187881Y-85070351D01*
X125063523Y-84992211D01*
X124893254Y-84932631D01*
X124893249Y-84932630D01*
X124714004Y-84912435D01*
X124713996Y-84912435D01*
X124534750Y-84932630D01*
X124534745Y-84932631D01*
X124364476Y-84992211D01*
X124211737Y-85088184D01*
X124084184Y-85215737D01*
X123988211Y-85368476D01*
X123928631Y-85538745D01*
X123928630Y-85538750D01*
X123908435Y-85717996D01*
X104636516Y-85717996D01*
X104636777Y-84655994D01*
X143579031Y-84655994D01*
X143579031Y-84656005D01*
X143598874Y-84895476D01*
X143657865Y-85128428D01*
X143717807Y-85265084D01*
X143717808Y-85265084D01*
X144326893Y-84656000D01*
X144326893Y-84655999D01*
X144262875Y-84591981D01*
X144384000Y-84591981D01*
X144384000Y-84720019D01*
X144408979Y-84845598D01*
X144457978Y-84963890D01*
X144529112Y-85070351D01*
X144619649Y-85160888D01*
X144726110Y-85232022D01*
X144844402Y-85281021D01*
X144969981Y-85306000D01*
X145098019Y-85306000D01*
X145223598Y-85281021D01*
X145341890Y-85232022D01*
X145448351Y-85160888D01*
X145538888Y-85070351D01*
X145610022Y-84963890D01*
X145659021Y-84845598D01*
X145684000Y-84720019D01*
X145684000Y-84655999D01*
X145741107Y-84655999D01*
X145741107Y-84656001D01*
X146350190Y-85265084D01*
X146350191Y-85265083D01*
X146410134Y-85128431D01*
X146469125Y-84895476D01*
X146488969Y-84656005D01*
X146488969Y-84655994D01*
X153738529Y-84655994D01*
X153738529Y-84656005D01*
X153758379Y-84895559D01*
X153817389Y-85128589D01*
X153913951Y-85348729D01*
X153926854Y-85368478D01*
X154045429Y-85549969D01*
X154208236Y-85726825D01*
X154208239Y-85726827D01*
X154208242Y-85726830D01*
X154397924Y-85874466D01*
X154397930Y-85874470D01*
X154397933Y-85874472D01*
X154571399Y-85968347D01*
X154581977Y-85974072D01*
X154609344Y-85988882D01*
X154609347Y-85988883D01*
X154836699Y-86066933D01*
X154836701Y-86066933D01*
X154836703Y-86066934D01*
X155073808Y-86106500D01*
X155073809Y-86106500D01*
X155314191Y-86106500D01*
X155314192Y-86106500D01*
X155551297Y-86066934D01*
X155778656Y-85988882D01*
X155990067Y-85874472D01*
X156179764Y-85726825D01*
X156342571Y-85549969D01*
X156474049Y-85348728D01*
X156570610Y-85128591D01*
X156629620Y-84895563D01*
X156649471Y-84656000D01*
X156649471Y-84655994D01*
X163898529Y-84655994D01*
X163898529Y-84656005D01*
X163918379Y-84895559D01*
X163977389Y-85128589D01*
X164073951Y-85348729D01*
X164086854Y-85368478D01*
X164205429Y-85549969D01*
X164368236Y-85726825D01*
X164368239Y-85726827D01*
X164368242Y-85726830D01*
X164557924Y-85874466D01*
X164557930Y-85874470D01*
X164557933Y-85874472D01*
X164731399Y-85968347D01*
X164741977Y-85974072D01*
X164769344Y-85988882D01*
X164769347Y-85988883D01*
X164996699Y-86066933D01*
X164996701Y-86066933D01*
X164996703Y-86066934D01*
X165233808Y-86106500D01*
X165233809Y-86106500D01*
X165474191Y-86106500D01*
X165474192Y-86106500D01*
X165711297Y-86066934D01*
X165938656Y-85988882D01*
X166150067Y-85874472D01*
X166339764Y-85726825D01*
X166502571Y-85549969D01*
X166634049Y-85348728D01*
X166730610Y-85128591D01*
X166789620Y-84895563D01*
X166809471Y-84656000D01*
X166789620Y-84416437D01*
X166730610Y-84183409D01*
X166634049Y-83963272D01*
X166502571Y-83762031D01*
X166339764Y-83585175D01*
X166339759Y-83585171D01*
X166339757Y-83585169D01*
X166150075Y-83437533D01*
X166150069Y-83437529D01*
X165938657Y-83323118D01*
X165938652Y-83323116D01*
X165711300Y-83245066D01*
X165533468Y-83215391D01*
X165474192Y-83205500D01*
X165233808Y-83205500D01*
X165186387Y-83213413D01*
X164996699Y-83245066D01*
X164769347Y-83323116D01*
X164769342Y-83323118D01*
X164557930Y-83437529D01*
X164557924Y-83437533D01*
X164368242Y-83585169D01*
X164368239Y-83585172D01*
X164205430Y-83762029D01*
X164205427Y-83762033D01*
X164073951Y-83963270D01*
X163977389Y-84183410D01*
X163918379Y-84416440D01*
X163898529Y-84655994D01*
X156649471Y-84655994D01*
X156629620Y-84416437D01*
X156570610Y-84183409D01*
X156474049Y-83963272D01*
X156342571Y-83762031D01*
X156179764Y-83585175D01*
X156179759Y-83585171D01*
X156179757Y-83585169D01*
X155990075Y-83437533D01*
X155990069Y-83437529D01*
X155778657Y-83323118D01*
X155778652Y-83323116D01*
X155551300Y-83245066D01*
X155373468Y-83215391D01*
X155314192Y-83205500D01*
X155073808Y-83205500D01*
X155026387Y-83213413D01*
X154836699Y-83245066D01*
X154609347Y-83323116D01*
X154609342Y-83323118D01*
X154397930Y-83437529D01*
X154397924Y-83437533D01*
X154208242Y-83585169D01*
X154208239Y-83585172D01*
X154045430Y-83762029D01*
X154045427Y-83762033D01*
X153913951Y-83963270D01*
X153817389Y-84183410D01*
X153758379Y-84416440D01*
X153738529Y-84655994D01*
X146488969Y-84655994D01*
X146469125Y-84416523D01*
X146410135Y-84183574D01*
X146350190Y-84046914D01*
X145741107Y-84655999D01*
X145684000Y-84655999D01*
X145684000Y-84591981D01*
X145659021Y-84466402D01*
X145610022Y-84348110D01*
X145538888Y-84241649D01*
X145448351Y-84151112D01*
X145341890Y-84079978D01*
X145223598Y-84030979D01*
X145098019Y-84006000D01*
X144969981Y-84006000D01*
X144844402Y-84030979D01*
X144726110Y-84079978D01*
X144619649Y-84151112D01*
X144529112Y-84241649D01*
X144457978Y-84348110D01*
X144408979Y-84466402D01*
X144384000Y-84591981D01*
X144262875Y-84591981D01*
X143717807Y-84046914D01*
X143657864Y-84183573D01*
X143598874Y-84416523D01*
X143579031Y-84655994D01*
X104636777Y-84655994D01*
X104637102Y-83337925D01*
X144423033Y-83337925D01*
X144423033Y-83337926D01*
X145034000Y-83948893D01*
X145034001Y-83948893D01*
X145644965Y-83337926D01*
X145618450Y-83323576D01*
X145391176Y-83245553D01*
X145154149Y-83206000D01*
X144913851Y-83206000D01*
X144676823Y-83245553D01*
X144449550Y-83323576D01*
X144449539Y-83323581D01*
X144423033Y-83337925D01*
X104637102Y-83337925D01*
X104637638Y-81159500D01*
X127820743Y-81159500D01*
X127872641Y-81316119D01*
X127872643Y-81316124D01*
X127964684Y-81465345D01*
X128088654Y-81589315D01*
X128237875Y-81681356D01*
X128237880Y-81681358D01*
X128404302Y-81736505D01*
X128404309Y-81736506D01*
X128507019Y-81746999D01*
X129532000Y-81746999D01*
X129556972Y-81746999D01*
X129556986Y-81746998D01*
X129659697Y-81736505D01*
X129826119Y-81681358D01*
X129826124Y-81681356D01*
X129975345Y-81589315D01*
X130099315Y-81465345D01*
X130191356Y-81316124D01*
X130191358Y-81316119D01*
X130243257Y-81159500D01*
X129532000Y-81159500D01*
X129532000Y-81746999D01*
X128507019Y-81746999D01*
X128532000Y-81746998D01*
X128532000Y-81159500D01*
X127820743Y-81159500D01*
X104637638Y-81159500D01*
X104638368Y-78196983D01*
X127806500Y-78196983D01*
X127806500Y-78972001D01*
X127806501Y-78972019D01*
X127817000Y-79074796D01*
X127817001Y-79074799D01*
X127872185Y-79241331D01*
X127872186Y-79241334D01*
X127964288Y-79390656D01*
X128088344Y-79514712D01*
X128091628Y-79516737D01*
X128091653Y-79516753D01*
X128093445Y-79518746D01*
X128094011Y-79519193D01*
X128093934Y-79519289D01*
X128138379Y-79568699D01*
X128149603Y-79637661D01*
X128121761Y-79701744D01*
X128091665Y-79727826D01*
X128088660Y-79729679D01*
X128088655Y-79729683D01*
X127964684Y-79853654D01*
X127872643Y-80002875D01*
X127872641Y-80002880D01*
X127820743Y-80159500D01*
X130243256Y-80159500D01*
X130191358Y-80002880D01*
X130191356Y-80002875D01*
X130099315Y-79853654D01*
X129975344Y-79729683D01*
X129975341Y-79729681D01*
X129972339Y-79727829D01*
X129970713Y-79726021D01*
X129969677Y-79725202D01*
X129969817Y-79725024D01*
X129925617Y-79675880D01*
X129914397Y-79606917D01*
X129942243Y-79542836D01*
X129972344Y-79516754D01*
X129975656Y-79514712D01*
X130099712Y-79390656D01*
X130191814Y-79241334D01*
X130246999Y-79074797D01*
X130257500Y-78972009D01*
X130257499Y-78196992D01*
X130246999Y-78094203D01*
X130191814Y-77927666D01*
X130099712Y-77778344D01*
X129975656Y-77654288D01*
X129841402Y-77571480D01*
X129794679Y-77519533D01*
X129782500Y-77465942D01*
X129782500Y-77127972D01*
X129789458Y-77087017D01*
X129817368Y-77007255D01*
X129825592Y-76934265D01*
X129837565Y-76828003D01*
X129837565Y-76827996D01*
X129817369Y-76648750D01*
X129817368Y-76648745D01*
X129789915Y-76570289D01*
X129757789Y-76478478D01*
X129756121Y-76475824D01*
X129712276Y-76406045D01*
X129661816Y-76325738D01*
X129534262Y-76198184D01*
X129381523Y-76102211D01*
X129211254Y-76042631D01*
X129211249Y-76042630D01*
X129032004Y-76022435D01*
X129031996Y-76022435D01*
X128852750Y-76042630D01*
X128852745Y-76042631D01*
X128682476Y-76102211D01*
X128529737Y-76198184D01*
X128402184Y-76325737D01*
X128306211Y-76478476D01*
X128246631Y-76648745D01*
X128246630Y-76648750D01*
X128226435Y-76827996D01*
X128226435Y-76828003D01*
X128246630Y-77007249D01*
X128246631Y-77007254D01*
X128274542Y-77087017D01*
X128281500Y-77127972D01*
X128281500Y-77465942D01*
X128261815Y-77532981D01*
X128222598Y-77571479D01*
X128201875Y-77584262D01*
X128088342Y-77654289D01*
X127964289Y-77778342D01*
X127872187Y-77927663D01*
X127872186Y-77927666D01*
X127817001Y-78094203D01*
X127817001Y-78094204D01*
X127817000Y-78094204D01*
X127806500Y-78196983D01*
X104638368Y-78196983D01*
X104638830Y-76319996D01*
X107906435Y-76319996D01*
X107906435Y-76320003D01*
X107926630Y-76499249D01*
X107926633Y-76499262D01*
X107982894Y-76660045D01*
X107986456Y-76729824D01*
X107982894Y-76741955D01*
X107926633Y-76902737D01*
X107926630Y-76902750D01*
X107906435Y-77081996D01*
X107906435Y-77082003D01*
X107926630Y-77261249D01*
X107926631Y-77261254D01*
X107986211Y-77431523D01*
X108068313Y-77562186D01*
X108082184Y-77584262D01*
X108209738Y-77711816D01*
X108300080Y-77768582D01*
X108315616Y-77778344D01*
X108362478Y-77807789D01*
X108532745Y-77867368D01*
X108532750Y-77867369D01*
X108711996Y-77887565D01*
X108712000Y-77887565D01*
X108712004Y-77887565D01*
X108891249Y-77867369D01*
X108891252Y-77867368D01*
X108891255Y-77867368D01*
X109061522Y-77807789D01*
X109214262Y-77711816D01*
X109341816Y-77584262D01*
X109437789Y-77431522D01*
X109497368Y-77261255D01*
X109497369Y-77261249D01*
X109517565Y-77082003D01*
X109517565Y-77081996D01*
X109497369Y-76902750D01*
X109497366Y-76902737D01*
X109441106Y-76741955D01*
X109437544Y-76672176D01*
X109441106Y-76660045D01*
X109497366Y-76499262D01*
X109497369Y-76499249D01*
X109517565Y-76320003D01*
X109517565Y-76319996D01*
X109497369Y-76140750D01*
X109497368Y-76140745D01*
X109471215Y-76066003D01*
X109437789Y-75970478D01*
X109436121Y-75967824D01*
X109341815Y-75817737D01*
X109214262Y-75690184D01*
X109061523Y-75594211D01*
X108891254Y-75534631D01*
X108891249Y-75534630D01*
X108712004Y-75514435D01*
X108711996Y-75514435D01*
X108532750Y-75534630D01*
X108532745Y-75534631D01*
X108362476Y-75594211D01*
X108209737Y-75690184D01*
X108082184Y-75817737D01*
X107986211Y-75970476D01*
X107926631Y-76140745D01*
X107926630Y-76140750D01*
X107906435Y-76319996D01*
X104638830Y-76319996D01*
X104639580Y-73271996D01*
X125432435Y-73271996D01*
X125432435Y-73272003D01*
X125452630Y-73451249D01*
X125452633Y-73451262D01*
X125508894Y-73612045D01*
X125512456Y-73681824D01*
X125508894Y-73693955D01*
X125452633Y-73854737D01*
X125452630Y-73854750D01*
X125432435Y-74033996D01*
X125432435Y-74034003D01*
X125452630Y-74213249D01*
X125452633Y-74213262D01*
X125508894Y-74374045D01*
X125512456Y-74443824D01*
X125508894Y-74455955D01*
X125452633Y-74616737D01*
X125452630Y-74616750D01*
X125432435Y-74795996D01*
X125432435Y-74796003D01*
X125452630Y-74975249D01*
X125452633Y-74975262D01*
X125508894Y-75136045D01*
X125512456Y-75205824D01*
X125508894Y-75217955D01*
X125452633Y-75378737D01*
X125452630Y-75378750D01*
X125432435Y-75557996D01*
X125432435Y-75558003D01*
X125452630Y-75737249D01*
X125452633Y-75737262D01*
X125508894Y-75898045D01*
X125512456Y-75967824D01*
X125508894Y-75979955D01*
X125452633Y-76140737D01*
X125452630Y-76140750D01*
X125432435Y-76319996D01*
X125432435Y-76320003D01*
X125452630Y-76499249D01*
X125452633Y-76499262D01*
X125508894Y-76660045D01*
X125512456Y-76729824D01*
X125508894Y-76741955D01*
X125452633Y-76902737D01*
X125452630Y-76902750D01*
X125432435Y-77081996D01*
X125432435Y-77082003D01*
X125452630Y-77261249D01*
X125452631Y-77261254D01*
X125512211Y-77431523D01*
X125594313Y-77562186D01*
X125608184Y-77584262D01*
X125735738Y-77711816D01*
X125826080Y-77768582D01*
X125841616Y-77778344D01*
X125888478Y-77807789D01*
X126058745Y-77867368D01*
X126058750Y-77867369D01*
X126237996Y-77887565D01*
X126238000Y-77887565D01*
X126238004Y-77887565D01*
X126417249Y-77867369D01*
X126417252Y-77867368D01*
X126417255Y-77867368D01*
X126587522Y-77807789D01*
X126740262Y-77711816D01*
X126867816Y-77584262D01*
X126963789Y-77431522D01*
X127023368Y-77261255D01*
X127023369Y-77261249D01*
X127043565Y-77082003D01*
X127043565Y-77081996D01*
X127023369Y-76902750D01*
X127023366Y-76902737D01*
X126967106Y-76741955D01*
X126963544Y-76672176D01*
X126967106Y-76660045D01*
X127023366Y-76499262D01*
X127023369Y-76499249D01*
X127043565Y-76320003D01*
X127043565Y-76319996D01*
X127023369Y-76140750D01*
X127023366Y-76140737D01*
X126967106Y-75979955D01*
X126963544Y-75910176D01*
X126967106Y-75898045D01*
X127023366Y-75737262D01*
X127023369Y-75737249D01*
X127043565Y-75558003D01*
X127043565Y-75557996D01*
X127023369Y-75378750D01*
X127023366Y-75378737D01*
X126967106Y-75217955D01*
X126963544Y-75148176D01*
X126967106Y-75136045D01*
X127023366Y-74975262D01*
X127023369Y-74975249D01*
X127043565Y-74796003D01*
X127043565Y-74795996D01*
X127023369Y-74616750D01*
X127023366Y-74616737D01*
X126967106Y-74455955D01*
X126963544Y-74386176D01*
X126967106Y-74374045D01*
X127023366Y-74213262D01*
X127023369Y-74213249D01*
X127043565Y-74034003D01*
X127043565Y-74033996D01*
X127023369Y-73854750D01*
X127023366Y-73854737D01*
X126997213Y-73779996D01*
X144990435Y-73779996D01*
X144990435Y-73780003D01*
X145010630Y-73959249D01*
X145010631Y-73959254D01*
X145070211Y-74129523D01*
X145122820Y-74213249D01*
X145166184Y-74282262D01*
X145293738Y-74409816D01*
X145446478Y-74505789D01*
X145549952Y-74541996D01*
X145616745Y-74565368D01*
X145616750Y-74565369D01*
X145795996Y-74585565D01*
X145796000Y-74585565D01*
X145796004Y-74585565D01*
X145975249Y-74565369D01*
X145975252Y-74565368D01*
X145975255Y-74565368D01*
X146145522Y-74505789D01*
X146298262Y-74409816D01*
X146425816Y-74282262D01*
X146521789Y-74129522D01*
X146581368Y-73959255D01*
X146590661Y-73876776D01*
X146601565Y-73780003D01*
X146601565Y-73779996D01*
X146581369Y-73600750D01*
X146581368Y-73600745D01*
X146581365Y-73600737D01*
X146521789Y-73430478D01*
X146520121Y-73427824D01*
X146425815Y-73277737D01*
X146298262Y-73150184D01*
X146145523Y-73054211D01*
X145975254Y-72994631D01*
X145975249Y-72994630D01*
X145796004Y-72974435D01*
X145795996Y-72974435D01*
X145616750Y-72994630D01*
X145616745Y-72994631D01*
X145446476Y-73054211D01*
X145293737Y-73150184D01*
X145166184Y-73277737D01*
X145070211Y-73430476D01*
X145010631Y-73600745D01*
X145010630Y-73600750D01*
X144990435Y-73779996D01*
X126997213Y-73779996D01*
X126967106Y-73693955D01*
X126963544Y-73624176D01*
X126967106Y-73612045D01*
X127023366Y-73451262D01*
X127023369Y-73451249D01*
X127043565Y-73272003D01*
X127043565Y-73271996D01*
X127023369Y-73092750D01*
X127023368Y-73092745D01*
X126997215Y-73018003D01*
X126963789Y-72922478D01*
X126867816Y-72769738D01*
X126740262Y-72642184D01*
X126587523Y-72546211D01*
X126417254Y-72486631D01*
X126417249Y-72486630D01*
X126238004Y-72466435D01*
X126237996Y-72466435D01*
X126058750Y-72486630D01*
X126058745Y-72486631D01*
X125888476Y-72546211D01*
X125735737Y-72642184D01*
X125608184Y-72769737D01*
X125512211Y-72922476D01*
X125452631Y-73092745D01*
X125452630Y-73092750D01*
X125432435Y-73271996D01*
X104639580Y-73271996D01*
X104640498Y-69545131D01*
X104640689Y-69538280D01*
X104640811Y-69536097D01*
X104657572Y-69234804D01*
X104658962Y-69221961D01*
X104671949Y-69141401D01*
X104706854Y-68924883D01*
X104709563Y-68912289D01*
X104788124Y-68621769D01*
X104792136Y-68609510D01*
X104900496Y-68328764D01*
X104905758Y-68316995D01*
X104929785Y-68269999D01*
X111154341Y-68269999D01*
X111154341Y-68270000D01*
X111174936Y-68505403D01*
X111174938Y-68505413D01*
X111236094Y-68733655D01*
X111236096Y-68733659D01*
X111236097Y-68733663D01*
X111315801Y-68904588D01*
X111335965Y-68947830D01*
X111335967Y-68947834D01*
X111444281Y-69102521D01*
X111471504Y-69141400D01*
X111471506Y-69141402D01*
X111593430Y-69263326D01*
X111626915Y-69324649D01*
X111621931Y-69394341D01*
X111580059Y-69450274D01*
X111549083Y-69467189D01*
X111417669Y-69516203D01*
X111417664Y-69516206D01*
X111302455Y-69602452D01*
X111302452Y-69602455D01*
X111216206Y-69717664D01*
X111216202Y-69717671D01*
X111165908Y-69852517D01*
X111159501Y-69912116D01*
X111159500Y-69912135D01*
X111159500Y-71707870D01*
X111159501Y-71707876D01*
X111165908Y-71767483D01*
X111216202Y-71902328D01*
X111216206Y-71902335D01*
X111302452Y-72017544D01*
X111302455Y-72017547D01*
X111417664Y-72103793D01*
X111417671Y-72103797D01*
X111552517Y-72154091D01*
X111552516Y-72154091D01*
X111559444Y-72154835D01*
X111612127Y-72160500D01*
X113407872Y-72160499D01*
X113467483Y-72154091D01*
X113602331Y-72103796D01*
X113717546Y-72017546D01*
X113803796Y-71902331D01*
X113852810Y-71770916D01*
X113894681Y-71714984D01*
X113960145Y-71690566D01*
X114028418Y-71705417D01*
X114056673Y-71726569D01*
X114178599Y-71848495D01*
X114275384Y-71916265D01*
X114372165Y-71984032D01*
X114372167Y-71984033D01*
X114372170Y-71984035D01*
X114586337Y-72083903D01*
X114814592Y-72145063D01*
X114991034Y-72160500D01*
X115049999Y-72165659D01*
X115050000Y-72165659D01*
X115050001Y-72165659D01*
X115108966Y-72160500D01*
X115285408Y-72145063D01*
X115513663Y-72083903D01*
X115727830Y-71984035D01*
X115921401Y-71848495D01*
X116088495Y-71681401D01*
X116218425Y-71495842D01*
X116273002Y-71452217D01*
X116342500Y-71445023D01*
X116404855Y-71476546D01*
X116421575Y-71495842D01*
X116551281Y-71681082D01*
X116551505Y-71681401D01*
X116718599Y-71848495D01*
X116815384Y-71916265D01*
X116912165Y-71984032D01*
X116912167Y-71984033D01*
X116912170Y-71984035D01*
X117126337Y-72083903D01*
X117354592Y-72145063D01*
X117531034Y-72160500D01*
X117589999Y-72165659D01*
X117590000Y-72165659D01*
X117590001Y-72165659D01*
X117648966Y-72160500D01*
X117825408Y-72145063D01*
X118053663Y-72083903D01*
X118267830Y-71984035D01*
X118461401Y-71848495D01*
X118628495Y-71681401D01*
X118758425Y-71495842D01*
X118813002Y-71452217D01*
X118882500Y-71445023D01*
X118944855Y-71476546D01*
X118961575Y-71495842D01*
X119091281Y-71681082D01*
X119091505Y-71681401D01*
X119258599Y-71848495D01*
X119355384Y-71916265D01*
X119452165Y-71984032D01*
X119452167Y-71984033D01*
X119452170Y-71984035D01*
X119666337Y-72083903D01*
X119894592Y-72145063D01*
X120071034Y-72160500D01*
X120129999Y-72165659D01*
X120130000Y-72165659D01*
X120130001Y-72165659D01*
X120188966Y-72160500D01*
X120365408Y-72145063D01*
X120593663Y-72083903D01*
X120807830Y-71984035D01*
X121001401Y-71848495D01*
X121168495Y-71681401D01*
X121298730Y-71495405D01*
X121353307Y-71451781D01*
X121422805Y-71444587D01*
X121485160Y-71476110D01*
X121501879Y-71495405D01*
X121631890Y-71681078D01*
X121798917Y-71848105D01*
X121992422Y-71983600D01*
X121992424Y-71983601D01*
X122169999Y-72066405D01*
X122170000Y-72066405D01*
X122170000Y-70875826D01*
X122204075Y-71002993D01*
X122269901Y-71117007D01*
X122362993Y-71210099D01*
X122477007Y-71275925D01*
X122604174Y-71310000D01*
X122735826Y-71310000D01*
X122862993Y-71275925D01*
X122977007Y-71210099D01*
X123070099Y-71117007D01*
X123135925Y-71002993D01*
X123170000Y-70875826D01*
X123170000Y-72066405D01*
X123347575Y-71983601D01*
X123347577Y-71983600D01*
X123541082Y-71848105D01*
X123708105Y-71681082D01*
X123838119Y-71495405D01*
X123892696Y-71451781D01*
X123962195Y-71444588D01*
X124024549Y-71476110D01*
X124041269Y-71495405D01*
X124171505Y-71681401D01*
X124338599Y-71848495D01*
X124435384Y-71916265D01*
X124532165Y-71984032D01*
X124532167Y-71984033D01*
X124532170Y-71984035D01*
X124746337Y-72083903D01*
X124974592Y-72145063D01*
X125151034Y-72160500D01*
X125209999Y-72165659D01*
X125210000Y-72165659D01*
X125210001Y-72165659D01*
X125268966Y-72160500D01*
X125445408Y-72145063D01*
X125673663Y-72083903D01*
X125887830Y-71984035D01*
X126081401Y-71848495D01*
X126248495Y-71681401D01*
X126378425Y-71495842D01*
X126433002Y-71452217D01*
X126502500Y-71445023D01*
X126564855Y-71476546D01*
X126581575Y-71495842D01*
X126711281Y-71681082D01*
X126711505Y-71681401D01*
X126878599Y-71848495D01*
X126975384Y-71916265D01*
X127072165Y-71984032D01*
X127072167Y-71984033D01*
X127072170Y-71984035D01*
X127286337Y-72083903D01*
X127514592Y-72145063D01*
X127691034Y-72160500D01*
X127749999Y-72165659D01*
X127750000Y-72165659D01*
X127750001Y-72165659D01*
X127808966Y-72160500D01*
X127985408Y-72145063D01*
X128213663Y-72083903D01*
X128427830Y-71984035D01*
X128621401Y-71848495D01*
X128788495Y-71681401D01*
X128918425Y-71495842D01*
X128973002Y-71452217D01*
X129042500Y-71445023D01*
X129104855Y-71476546D01*
X129121575Y-71495842D01*
X129251281Y-71681082D01*
X129251505Y-71681401D01*
X129418599Y-71848495D01*
X129515384Y-71916265D01*
X129612165Y-71984032D01*
X129612167Y-71984033D01*
X129612170Y-71984035D01*
X129826337Y-72083903D01*
X130054592Y-72145063D01*
X130231034Y-72160500D01*
X130289999Y-72165659D01*
X130290000Y-72165659D01*
X130290001Y-72165659D01*
X130348966Y-72160500D01*
X130525408Y-72145063D01*
X130753663Y-72083903D01*
X130967830Y-71984035D01*
X131161401Y-71848495D01*
X131328495Y-71681401D01*
X131458425Y-71495842D01*
X131513002Y-71452217D01*
X131582500Y-71445023D01*
X131644855Y-71476546D01*
X131661575Y-71495842D01*
X131791281Y-71681082D01*
X131791505Y-71681401D01*
X131958599Y-71848495D01*
X132055384Y-71916265D01*
X132152165Y-71984032D01*
X132152167Y-71984033D01*
X132152170Y-71984035D01*
X132366337Y-72083903D01*
X132594592Y-72145063D01*
X132771034Y-72160500D01*
X132829999Y-72165659D01*
X132830000Y-72165659D01*
X132830001Y-72165659D01*
X132888966Y-72160500D01*
X133065408Y-72145063D01*
X133293663Y-72083903D01*
X133507830Y-71984035D01*
X133701401Y-71848495D01*
X133868495Y-71681401D01*
X133998425Y-71495842D01*
X134053002Y-71452217D01*
X134122500Y-71445023D01*
X134184855Y-71476546D01*
X134201575Y-71495842D01*
X134331281Y-71681082D01*
X134331505Y-71681401D01*
X134498599Y-71848495D01*
X134595384Y-71916265D01*
X134692165Y-71984032D01*
X134692167Y-71984033D01*
X134692170Y-71984035D01*
X134906337Y-72083903D01*
X135134592Y-72145063D01*
X135311034Y-72160500D01*
X135369999Y-72165659D01*
X135370000Y-72165659D01*
X135370001Y-72165659D01*
X135428966Y-72160500D01*
X135605408Y-72145063D01*
X135833663Y-72083903D01*
X136047830Y-71984035D01*
X136241401Y-71848495D01*
X136408495Y-71681401D01*
X136538425Y-71495842D01*
X136593002Y-71452217D01*
X136662500Y-71445023D01*
X136724855Y-71476546D01*
X136741575Y-71495842D01*
X136871281Y-71681082D01*
X136871505Y-71681401D01*
X137038599Y-71848495D01*
X137135384Y-71916265D01*
X137232165Y-71984032D01*
X137232167Y-71984033D01*
X137232170Y-71984035D01*
X137446337Y-72083903D01*
X137674592Y-72145063D01*
X137851034Y-72160500D01*
X137909999Y-72165659D01*
X137910000Y-72165659D01*
X137910001Y-72165659D01*
X137968966Y-72160500D01*
X138145408Y-72145063D01*
X138373663Y-72083903D01*
X138587830Y-71984035D01*
X138781401Y-71848495D01*
X138948495Y-71681401D01*
X139078425Y-71495842D01*
X139133002Y-71452217D01*
X139202500Y-71445023D01*
X139264855Y-71476546D01*
X139281575Y-71495842D01*
X139411281Y-71681082D01*
X139411505Y-71681401D01*
X139578599Y-71848495D01*
X139675384Y-71916265D01*
X139772165Y-71984032D01*
X139772167Y-71984033D01*
X139772170Y-71984035D01*
X139986337Y-72083903D01*
X140214592Y-72145063D01*
X140391034Y-72160500D01*
X140449999Y-72165659D01*
X140450000Y-72165659D01*
X140450001Y-72165659D01*
X140508966Y-72160500D01*
X140685408Y-72145063D01*
X140913663Y-72083903D01*
X141127830Y-71984035D01*
X141321401Y-71848495D01*
X141488495Y-71681401D01*
X141618730Y-71495405D01*
X141673307Y-71451781D01*
X141742805Y-71444587D01*
X141805160Y-71476110D01*
X141821879Y-71495405D01*
X141951890Y-71681078D01*
X142118917Y-71848105D01*
X142312422Y-71983600D01*
X142312424Y-71983601D01*
X142489999Y-72066405D01*
X142490000Y-72066405D01*
X142490000Y-70875826D01*
X142524075Y-71002993D01*
X142589901Y-71117007D01*
X142682993Y-71210099D01*
X142797007Y-71275925D01*
X142924174Y-71310000D01*
X143055826Y-71310000D01*
X143182993Y-71275925D01*
X143297007Y-71210099D01*
X143390099Y-71117007D01*
X143455925Y-71002993D01*
X143490000Y-70875826D01*
X143490000Y-72066405D01*
X143667575Y-71983601D01*
X143667577Y-71983600D01*
X143861082Y-71848105D01*
X144028105Y-71681082D01*
X144158119Y-71495405D01*
X144212696Y-71451781D01*
X144282195Y-71444588D01*
X144344549Y-71476110D01*
X144361269Y-71495405D01*
X144491505Y-71681401D01*
X144658599Y-71848495D01*
X144755384Y-71916265D01*
X144852165Y-71984032D01*
X144852167Y-71984033D01*
X144852170Y-71984035D01*
X145066337Y-72083903D01*
X145294592Y-72145063D01*
X145471034Y-72160500D01*
X145529999Y-72165659D01*
X145530000Y-72165659D01*
X145530001Y-72165659D01*
X145588966Y-72160500D01*
X145765408Y-72145063D01*
X145993663Y-72083903D01*
X146207830Y-71984035D01*
X146401401Y-71848495D01*
X146568495Y-71681401D01*
X146698425Y-71495842D01*
X146753002Y-71452217D01*
X146822500Y-71445023D01*
X146884855Y-71476546D01*
X146901575Y-71495842D01*
X147031281Y-71681082D01*
X147031505Y-71681401D01*
X147198599Y-71848495D01*
X147295384Y-71916265D01*
X147392165Y-71984032D01*
X147392167Y-71984033D01*
X147392170Y-71984035D01*
X147530563Y-72048568D01*
X147583001Y-72094740D01*
X147602153Y-72161934D01*
X147581937Y-72228815D01*
X147528772Y-72274149D01*
X147519113Y-72277991D01*
X147478479Y-72292209D01*
X147325737Y-72388184D01*
X147198184Y-72515737D01*
X147102211Y-72668476D01*
X147042631Y-72838745D01*
X147042630Y-72838750D01*
X147022435Y-73017996D01*
X147022435Y-73018003D01*
X147042630Y-73197249D01*
X147042633Y-73197262D01*
X147098894Y-73358045D01*
X147102456Y-73427824D01*
X147098894Y-73439955D01*
X147042633Y-73600737D01*
X147042630Y-73600750D01*
X147022435Y-73779996D01*
X147022435Y-73780003D01*
X147042630Y-73959249D01*
X147042633Y-73959262D01*
X147098894Y-74120045D01*
X147102456Y-74189824D01*
X147098894Y-74201955D01*
X147042633Y-74362737D01*
X147042630Y-74362750D01*
X147022435Y-74541996D01*
X147022435Y-74542003D01*
X147042630Y-74721249D01*
X147042633Y-74721262D01*
X147098894Y-74882045D01*
X147102456Y-74951824D01*
X147098894Y-74963955D01*
X147042633Y-75124737D01*
X147042630Y-75124750D01*
X147022435Y-75303996D01*
X147022435Y-75304003D01*
X147042630Y-75483249D01*
X147042633Y-75483262D01*
X147098894Y-75644045D01*
X147102456Y-75713824D01*
X147098894Y-75725955D01*
X147042633Y-75886737D01*
X147042630Y-75886750D01*
X147022435Y-76065996D01*
X147022435Y-76066003D01*
X147042630Y-76245249D01*
X147042633Y-76245262D01*
X147098894Y-76406045D01*
X147102456Y-76475824D01*
X147098894Y-76487955D01*
X147042633Y-76648737D01*
X147042630Y-76648750D01*
X147022435Y-76827996D01*
X147022435Y-76828003D01*
X147042630Y-77007249D01*
X147042631Y-77007254D01*
X147102211Y-77177523D01*
X147154820Y-77261249D01*
X147198184Y-77330262D01*
X147325738Y-77457816D01*
X147416080Y-77514582D01*
X147468723Y-77547660D01*
X147478478Y-77553789D01*
X147529039Y-77571481D01*
X147648745Y-77613368D01*
X147648750Y-77613369D01*
X147827996Y-77633565D01*
X147828000Y-77633565D01*
X147828004Y-77633565D01*
X148007249Y-77613369D01*
X148007252Y-77613368D01*
X148007255Y-77613368D01*
X148177522Y-77553789D01*
X148330262Y-77457816D01*
X148457816Y-77330262D01*
X148553789Y-77177522D01*
X148613368Y-77007255D01*
X148621592Y-76934265D01*
X148633565Y-76828003D01*
X148633565Y-76827996D01*
X148613369Y-76648750D01*
X148613366Y-76648737D01*
X148557106Y-76487955D01*
X148553544Y-76418176D01*
X148557106Y-76406045D01*
X148613366Y-76245262D01*
X148613369Y-76245249D01*
X148633565Y-76066003D01*
X148633565Y-76065996D01*
X148613369Y-75886750D01*
X148613366Y-75886737D01*
X148557106Y-75725955D01*
X148553544Y-75656176D01*
X148557106Y-75644045D01*
X148613366Y-75483262D01*
X148613369Y-75483249D01*
X148620641Y-75418711D01*
X163789500Y-75418711D01*
X163789500Y-75661288D01*
X163821161Y-75901785D01*
X163883947Y-76136104D01*
X163960121Y-76320003D01*
X163976776Y-76360212D01*
X164098064Y-76570289D01*
X164098066Y-76570292D01*
X164098067Y-76570293D01*
X164245733Y-76762736D01*
X164245739Y-76762743D01*
X164417256Y-76934260D01*
X164417262Y-76934265D01*
X164609711Y-77081936D01*
X164819788Y-77203224D01*
X165043900Y-77296054D01*
X165278211Y-77358838D01*
X165458586Y-77382584D01*
X165518711Y-77390500D01*
X165518712Y-77390500D01*
X165761289Y-77390500D01*
X165809388Y-77384167D01*
X166001789Y-77358838D01*
X166236100Y-77296054D01*
X166460212Y-77203224D01*
X166670289Y-77081936D01*
X166862738Y-76934265D01*
X167034265Y-76762738D01*
X167181936Y-76570289D01*
X167303224Y-76360212D01*
X167396054Y-76136100D01*
X167458838Y-75901789D01*
X167490500Y-75661288D01*
X167490500Y-75418712D01*
X167458838Y-75178211D01*
X167396054Y-74943900D01*
X167303224Y-74719788D01*
X167181936Y-74509711D01*
X167105283Y-74409815D01*
X167034266Y-74317263D01*
X167034260Y-74317256D01*
X166862743Y-74145739D01*
X166862736Y-74145733D01*
X166670293Y-73998067D01*
X166670292Y-73998066D01*
X166670289Y-73998064D01*
X166460212Y-73876776D01*
X166460205Y-73876773D01*
X166236104Y-73783947D01*
X166001785Y-73721161D01*
X165761289Y-73689500D01*
X165761288Y-73689500D01*
X165518712Y-73689500D01*
X165518711Y-73689500D01*
X165278214Y-73721161D01*
X165043895Y-73783947D01*
X164819794Y-73876773D01*
X164819785Y-73876777D01*
X164609706Y-73998067D01*
X164417263Y-74145733D01*
X164417256Y-74145739D01*
X164245739Y-74317256D01*
X164245733Y-74317263D01*
X164098067Y-74509706D01*
X163976777Y-74719785D01*
X163976773Y-74719794D01*
X163883947Y-74943895D01*
X163821161Y-75178214D01*
X163789500Y-75418711D01*
X148620641Y-75418711D01*
X148633565Y-75304003D01*
X148633565Y-75303996D01*
X148613369Y-75124750D01*
X148613366Y-75124737D01*
X148557106Y-74963955D01*
X148553544Y-74894176D01*
X148557106Y-74882045D01*
X148613366Y-74721262D01*
X148613369Y-74721249D01*
X148633565Y-74542003D01*
X148633565Y-74541996D01*
X148613369Y-74362750D01*
X148613366Y-74362737D01*
X148557106Y-74201955D01*
X148553544Y-74132176D01*
X148557106Y-74120045D01*
X148613366Y-73959262D01*
X148613369Y-73959249D01*
X148633565Y-73780003D01*
X148633565Y-73779996D01*
X148613369Y-73600750D01*
X148613366Y-73600737D01*
X148557106Y-73439955D01*
X148553544Y-73370176D01*
X148557106Y-73358045D01*
X148613366Y-73197262D01*
X148613369Y-73197249D01*
X148633565Y-73018003D01*
X148633565Y-73017996D01*
X148613369Y-72838750D01*
X148613368Y-72838745D01*
X148553788Y-72668476D01*
X148457815Y-72515737D01*
X148330260Y-72388182D01*
X148292226Y-72364284D01*
X148245936Y-72311950D01*
X148235288Y-72242896D01*
X148263663Y-72179048D01*
X148322053Y-72140676D01*
X148326063Y-72139528D01*
X148473587Y-72099999D01*
X148533653Y-72083906D01*
X148533654Y-72083905D01*
X148533663Y-72083903D01*
X148747830Y-71984035D01*
X148941401Y-71848495D01*
X149108495Y-71681401D01*
X149238425Y-71495842D01*
X149293002Y-71452217D01*
X149362500Y-71445023D01*
X149424855Y-71476546D01*
X149441575Y-71495842D01*
X149571281Y-71681082D01*
X149571505Y-71681401D01*
X149738599Y-71848495D01*
X149835384Y-71916265D01*
X149932165Y-71984032D01*
X149932167Y-71984033D01*
X149932170Y-71984035D01*
X150146337Y-72083903D01*
X150374592Y-72145063D01*
X150551034Y-72160500D01*
X150609999Y-72165659D01*
X150610000Y-72165659D01*
X150610001Y-72165659D01*
X150668966Y-72160500D01*
X150845408Y-72145063D01*
X151073663Y-72083903D01*
X151287830Y-71984035D01*
X151481401Y-71848495D01*
X151648495Y-71681401D01*
X151778425Y-71495842D01*
X151833002Y-71452217D01*
X151902500Y-71445023D01*
X151964855Y-71476546D01*
X151981575Y-71495842D01*
X152111281Y-71681082D01*
X152111505Y-71681401D01*
X152278599Y-71848495D01*
X152375384Y-71916265D01*
X152472165Y-71984032D01*
X152472167Y-71984033D01*
X152472170Y-71984035D01*
X152686337Y-72083903D01*
X152914592Y-72145063D01*
X153091034Y-72160500D01*
X153149999Y-72165659D01*
X153150000Y-72165659D01*
X153150001Y-72165659D01*
X153208966Y-72160500D01*
X153385408Y-72145063D01*
X153613663Y-72083903D01*
X153827830Y-71984035D01*
X154021401Y-71848495D01*
X154188495Y-71681401D01*
X154318425Y-71495842D01*
X154373002Y-71452217D01*
X154442500Y-71445023D01*
X154504855Y-71476546D01*
X154521575Y-71495842D01*
X154651281Y-71681082D01*
X154651505Y-71681401D01*
X154818599Y-71848495D01*
X154915384Y-71916265D01*
X155012165Y-71984032D01*
X155012167Y-71984033D01*
X155012170Y-71984035D01*
X155226337Y-72083903D01*
X155454592Y-72145063D01*
X155631034Y-72160500D01*
X155689999Y-72165659D01*
X155690000Y-72165659D01*
X155690001Y-72165659D01*
X155748966Y-72160500D01*
X155925408Y-72145063D01*
X156153663Y-72083903D01*
X156367830Y-71984035D01*
X156561401Y-71848495D01*
X156728495Y-71681401D01*
X156858425Y-71495842D01*
X156913002Y-71452217D01*
X156982500Y-71445023D01*
X157044855Y-71476546D01*
X157061575Y-71495842D01*
X157191281Y-71681082D01*
X157191505Y-71681401D01*
X157358599Y-71848495D01*
X157455384Y-71916265D01*
X157552165Y-71984032D01*
X157552167Y-71984033D01*
X157552170Y-71984035D01*
X157766337Y-72083903D01*
X157994592Y-72145063D01*
X158171034Y-72160500D01*
X158229999Y-72165659D01*
X158230000Y-72165659D01*
X158230001Y-72165659D01*
X158288966Y-72160500D01*
X158465408Y-72145063D01*
X158693663Y-72083903D01*
X158907830Y-71984035D01*
X159101401Y-71848495D01*
X159268495Y-71681401D01*
X159398730Y-71495405D01*
X159453307Y-71451781D01*
X159522805Y-71444587D01*
X159585160Y-71476110D01*
X159601879Y-71495405D01*
X159731890Y-71681078D01*
X159898917Y-71848105D01*
X160092422Y-71983600D01*
X160092424Y-71983601D01*
X160269999Y-72066405D01*
X160270000Y-72066405D01*
X161270000Y-72066405D01*
X161447575Y-71983601D01*
X161447577Y-71983600D01*
X161641082Y-71848105D01*
X161808105Y-71681082D01*
X161943601Y-71487576D01*
X162026406Y-71310000D01*
X161270000Y-71310000D01*
X161270000Y-72066405D01*
X160270000Y-72066405D01*
X160270000Y-70875826D01*
X160304075Y-71002993D01*
X160369901Y-71117007D01*
X160462993Y-71210099D01*
X160577007Y-71275925D01*
X160704174Y-71310000D01*
X160835826Y-71310000D01*
X160962993Y-71275925D01*
X161077007Y-71210099D01*
X161170099Y-71117007D01*
X161235925Y-71002993D01*
X161270000Y-70875826D01*
X161270000Y-70744174D01*
X161235925Y-70617007D01*
X161170099Y-70502993D01*
X161077007Y-70409901D01*
X160962993Y-70344075D01*
X160835826Y-70310000D01*
X162026406Y-70310000D01*
X162026405Y-70309999D01*
X161943599Y-70132421D01*
X161943597Y-70132417D01*
X161808113Y-69938926D01*
X161808108Y-69938920D01*
X161641078Y-69771890D01*
X161455405Y-69641879D01*
X161411780Y-69587302D01*
X161404588Y-69517804D01*
X161436110Y-69455449D01*
X161455406Y-69438730D01*
X161456279Y-69438119D01*
X161641401Y-69308495D01*
X161808495Y-69141401D01*
X161944035Y-68947830D01*
X162043903Y-68733663D01*
X162105063Y-68505408D01*
X162125659Y-68270000D01*
X162105063Y-68034592D01*
X162043903Y-67806337D01*
X161944035Y-67592171D01*
X161938731Y-67584595D01*
X161808494Y-67398597D01*
X161641402Y-67231506D01*
X161641395Y-67231501D01*
X161447834Y-67095967D01*
X161447830Y-67095965D01*
X161447828Y-67095964D01*
X161233663Y-66996097D01*
X161233659Y-66996096D01*
X161233655Y-66996094D01*
X161005413Y-66934938D01*
X161005403Y-66934936D01*
X160770001Y-66914341D01*
X160769999Y-66914341D01*
X160534596Y-66934936D01*
X160534586Y-66934938D01*
X160306344Y-66996094D01*
X160306335Y-66996098D01*
X160092171Y-67095964D01*
X160092169Y-67095965D01*
X159898597Y-67231505D01*
X159731505Y-67398597D01*
X159601575Y-67584158D01*
X159546998Y-67627783D01*
X159477500Y-67634977D01*
X159415145Y-67603454D01*
X159398425Y-67584158D01*
X159268494Y-67398597D01*
X159101402Y-67231506D01*
X159101395Y-67231501D01*
X158907834Y-67095967D01*
X158907830Y-67095965D01*
X158907828Y-67095964D01*
X158693663Y-66996097D01*
X158693659Y-66996096D01*
X158693655Y-66996094D01*
X158465413Y-66934938D01*
X158465403Y-66934936D01*
X158230001Y-66914341D01*
X158229999Y-66914341D01*
X157994596Y-66934936D01*
X157994586Y-66934938D01*
X157766344Y-66996094D01*
X157766335Y-66996098D01*
X157552171Y-67095964D01*
X157552169Y-67095965D01*
X157358597Y-67231505D01*
X157191505Y-67398597D01*
X157061575Y-67584158D01*
X157006998Y-67627783D01*
X156937500Y-67634977D01*
X156875145Y-67603454D01*
X156858425Y-67584158D01*
X156728494Y-67398597D01*
X156561402Y-67231506D01*
X156561395Y-67231501D01*
X156367834Y-67095967D01*
X156367830Y-67095965D01*
X156367828Y-67095964D01*
X156153663Y-66996097D01*
X156153659Y-66996096D01*
X156153655Y-66996094D01*
X155925413Y-66934938D01*
X155925403Y-66934936D01*
X155690001Y-66914341D01*
X155689999Y-66914341D01*
X155454596Y-66934936D01*
X155454586Y-66934938D01*
X155226344Y-66996094D01*
X155226335Y-66996098D01*
X155012171Y-67095964D01*
X155012169Y-67095965D01*
X154818597Y-67231505D01*
X154651508Y-67398594D01*
X154521269Y-67584595D01*
X154466692Y-67628219D01*
X154397193Y-67635412D01*
X154334839Y-67603890D01*
X154318119Y-67584594D01*
X154188113Y-67398926D01*
X154188108Y-67398920D01*
X154021082Y-67231894D01*
X153827576Y-67096398D01*
X153650000Y-67013593D01*
X153650000Y-68204174D01*
X153615925Y-68077007D01*
X153550099Y-67962993D01*
X153457007Y-67869901D01*
X153342993Y-67804075D01*
X153215826Y-67770000D01*
X153084174Y-67770000D01*
X152957007Y-67804075D01*
X152842993Y-67869901D01*
X152749901Y-67962993D01*
X152684075Y-68077007D01*
X152650000Y-68204174D01*
X152650000Y-67013593D01*
X152472422Y-67096399D01*
X152472420Y-67096400D01*
X152278926Y-67231886D01*
X152278920Y-67231891D01*
X152111891Y-67398920D01*
X152111890Y-67398922D01*
X151981880Y-67584595D01*
X151927303Y-67628219D01*
X151857804Y-67635412D01*
X151795450Y-67603890D01*
X151778730Y-67584594D01*
X151648494Y-67398597D01*
X151481402Y-67231506D01*
X151481395Y-67231501D01*
X151287834Y-67095967D01*
X151287830Y-67095965D01*
X151287828Y-67095964D01*
X151073663Y-66996097D01*
X151073659Y-66996096D01*
X151073655Y-66996094D01*
X150845413Y-66934938D01*
X150845403Y-66934936D01*
X150610001Y-66914341D01*
X150609999Y-66914341D01*
X150374596Y-66934936D01*
X150374586Y-66934938D01*
X150146344Y-66996094D01*
X150146335Y-66996098D01*
X149932171Y-67095964D01*
X149932169Y-67095965D01*
X149738597Y-67231505D01*
X149571508Y-67398594D01*
X149441269Y-67584595D01*
X149386692Y-67628219D01*
X149317193Y-67635412D01*
X149254839Y-67603890D01*
X149238119Y-67584594D01*
X149108113Y-67398926D01*
X149108108Y-67398920D01*
X148941082Y-67231894D01*
X148747576Y-67096398D01*
X148570000Y-67013593D01*
X148570000Y-68204174D01*
X148535925Y-68077007D01*
X148470099Y-67962993D01*
X148377007Y-67869901D01*
X148262993Y-67804075D01*
X148135826Y-67770000D01*
X148004174Y-67770000D01*
X147877007Y-67804075D01*
X147762993Y-67869901D01*
X147669901Y-67962993D01*
X147604075Y-68077007D01*
X147570000Y-68204174D01*
X147570000Y-67013593D01*
X147569999Y-67013593D01*
X147392422Y-67096399D01*
X147392420Y-67096400D01*
X147198926Y-67231886D01*
X147198920Y-67231891D01*
X147031891Y-67398920D01*
X147031890Y-67398922D01*
X146901880Y-67584595D01*
X146847303Y-67628219D01*
X146777804Y-67635412D01*
X146715450Y-67603890D01*
X146698730Y-67584594D01*
X146568494Y-67398597D01*
X146401402Y-67231506D01*
X146401395Y-67231501D01*
X146207834Y-67095967D01*
X146207830Y-67095965D01*
X146207828Y-67095964D01*
X145993663Y-66996097D01*
X145993659Y-66996096D01*
X145993655Y-66996094D01*
X145765413Y-66934938D01*
X145765403Y-66934936D01*
X145530001Y-66914341D01*
X145529999Y-66914341D01*
X145294596Y-66934936D01*
X145294586Y-66934938D01*
X145066344Y-66996094D01*
X145066335Y-66996098D01*
X144852171Y-67095964D01*
X144852169Y-67095965D01*
X144658597Y-67231505D01*
X144491505Y-67398597D01*
X144361575Y-67584158D01*
X144306998Y-67627783D01*
X144237500Y-67634977D01*
X144175145Y-67603454D01*
X144158425Y-67584158D01*
X144028494Y-67398597D01*
X143861402Y-67231506D01*
X143861395Y-67231501D01*
X143667834Y-67095967D01*
X143667830Y-67095965D01*
X143667828Y-67095964D01*
X143453663Y-66996097D01*
X143453659Y-66996096D01*
X143453655Y-66996094D01*
X143225413Y-66934938D01*
X143225403Y-66934936D01*
X142990001Y-66914341D01*
X142989999Y-66914341D01*
X142754596Y-66934936D01*
X142754586Y-66934938D01*
X142526344Y-66996094D01*
X142526335Y-66996098D01*
X142312171Y-67095964D01*
X142312169Y-67095965D01*
X142118597Y-67231505D01*
X141951505Y-67398597D01*
X141821575Y-67584158D01*
X141766998Y-67627783D01*
X141697500Y-67634977D01*
X141635145Y-67603454D01*
X141618425Y-67584158D01*
X141488494Y-67398597D01*
X141321402Y-67231506D01*
X141321395Y-67231501D01*
X141127834Y-67095967D01*
X141127830Y-67095965D01*
X141127828Y-67095964D01*
X140913663Y-66996097D01*
X140913659Y-66996096D01*
X140913655Y-66996094D01*
X140685413Y-66934938D01*
X140685403Y-66934936D01*
X140450001Y-66914341D01*
X140449999Y-66914341D01*
X140214596Y-66934936D01*
X140214586Y-66934938D01*
X139986344Y-66996094D01*
X139986335Y-66996098D01*
X139772171Y-67095964D01*
X139772169Y-67095965D01*
X139578597Y-67231505D01*
X139411505Y-67398597D01*
X139281575Y-67584158D01*
X139226998Y-67627783D01*
X139157500Y-67634977D01*
X139095145Y-67603454D01*
X139078425Y-67584158D01*
X138948494Y-67398597D01*
X138781402Y-67231506D01*
X138781395Y-67231501D01*
X138587834Y-67095967D01*
X138587830Y-67095965D01*
X138587828Y-67095964D01*
X138373663Y-66996097D01*
X138373659Y-66996096D01*
X138373655Y-66996094D01*
X138145413Y-66934938D01*
X138145403Y-66934936D01*
X137910001Y-66914341D01*
X137909999Y-66914341D01*
X137674596Y-66934936D01*
X137674586Y-66934938D01*
X137446344Y-66996094D01*
X137446335Y-66996098D01*
X137232171Y-67095964D01*
X137232169Y-67095965D01*
X137038597Y-67231505D01*
X136871508Y-67398594D01*
X136741269Y-67584595D01*
X136686692Y-67628219D01*
X136617193Y-67635412D01*
X136554839Y-67603890D01*
X136538119Y-67584594D01*
X136408113Y-67398926D01*
X136408108Y-67398920D01*
X136241082Y-67231894D01*
X136047576Y-67096398D01*
X135870000Y-67013593D01*
X135870000Y-68204174D01*
X135835925Y-68077007D01*
X135770099Y-67962993D01*
X135677007Y-67869901D01*
X135562993Y-67804075D01*
X135435826Y-67770000D01*
X135304174Y-67770000D01*
X135177007Y-67804075D01*
X135062993Y-67869901D01*
X134969901Y-67962993D01*
X134904075Y-68077007D01*
X134870000Y-68204174D01*
X134870000Y-67013593D01*
X134869999Y-67013593D01*
X134692422Y-67096399D01*
X134692420Y-67096400D01*
X134498926Y-67231886D01*
X134498920Y-67231891D01*
X134331891Y-67398920D01*
X134331890Y-67398922D01*
X134201880Y-67584595D01*
X134147303Y-67628219D01*
X134077804Y-67635412D01*
X134015450Y-67603890D01*
X133998730Y-67584594D01*
X133868494Y-67398597D01*
X133701402Y-67231506D01*
X133701395Y-67231501D01*
X133507834Y-67095967D01*
X133507830Y-67095965D01*
X133507828Y-67095964D01*
X133293663Y-66996097D01*
X133293659Y-66996096D01*
X133293655Y-66996094D01*
X133065413Y-66934938D01*
X133065403Y-66934936D01*
X132830001Y-66914341D01*
X132829999Y-66914341D01*
X132594596Y-66934936D01*
X132594586Y-66934938D01*
X132366344Y-66996094D01*
X132366335Y-66996098D01*
X132152171Y-67095964D01*
X132152169Y-67095965D01*
X131958597Y-67231505D01*
X131791505Y-67398597D01*
X131661575Y-67584158D01*
X131606998Y-67627783D01*
X131537500Y-67634977D01*
X131475145Y-67603454D01*
X131458425Y-67584158D01*
X131328494Y-67398597D01*
X131161402Y-67231506D01*
X131161395Y-67231501D01*
X130967834Y-67095967D01*
X130967830Y-67095965D01*
X130967828Y-67095964D01*
X130753663Y-66996097D01*
X130753659Y-66996096D01*
X130753655Y-66996094D01*
X130525413Y-66934938D01*
X130525403Y-66934936D01*
X130290001Y-66914341D01*
X130289999Y-66914341D01*
X130054596Y-66934936D01*
X130054586Y-66934938D01*
X129826344Y-66996094D01*
X129826335Y-66996098D01*
X129612171Y-67095964D01*
X129612169Y-67095965D01*
X129418597Y-67231505D01*
X129251508Y-67398594D01*
X129121269Y-67584595D01*
X129066692Y-67628219D01*
X128997193Y-67635412D01*
X128934839Y-67603890D01*
X128918119Y-67584594D01*
X128788113Y-67398926D01*
X128788108Y-67398920D01*
X128621082Y-67231894D01*
X128427576Y-67096398D01*
X128250000Y-67013593D01*
X128250000Y-68204174D01*
X128215925Y-68077007D01*
X128150099Y-67962993D01*
X128057007Y-67869901D01*
X127942993Y-67804075D01*
X127815826Y-67770000D01*
X127684174Y-67770000D01*
X127557007Y-67804075D01*
X127442993Y-67869901D01*
X127349901Y-67962993D01*
X127284075Y-68077007D01*
X127250000Y-68204174D01*
X127250000Y-67013593D01*
X127249999Y-67013593D01*
X127072422Y-67096399D01*
X127072420Y-67096400D01*
X126878926Y-67231886D01*
X126878920Y-67231891D01*
X126711891Y-67398920D01*
X126711890Y-67398922D01*
X126581880Y-67584595D01*
X126527303Y-67628219D01*
X126457804Y-67635412D01*
X126395450Y-67603890D01*
X126378730Y-67584594D01*
X126248494Y-67398597D01*
X126081402Y-67231506D01*
X126081395Y-67231501D01*
X125887834Y-67095967D01*
X125887830Y-67095965D01*
X125887828Y-67095964D01*
X125673663Y-66996097D01*
X125673659Y-66996096D01*
X125673655Y-66996094D01*
X125445413Y-66934938D01*
X125445403Y-66934936D01*
X125210001Y-66914341D01*
X125209999Y-66914341D01*
X124974596Y-66934936D01*
X124974586Y-66934938D01*
X124746344Y-66996094D01*
X124746335Y-66996098D01*
X124532171Y-67095964D01*
X124532169Y-67095965D01*
X124338597Y-67231505D01*
X124171505Y-67398597D01*
X124041575Y-67584158D01*
X123986998Y-67627783D01*
X123917500Y-67634977D01*
X123855145Y-67603454D01*
X123838425Y-67584158D01*
X123708494Y-67398597D01*
X123541402Y-67231506D01*
X123541395Y-67231501D01*
X123347834Y-67095967D01*
X123347830Y-67095965D01*
X123347828Y-67095964D01*
X123133663Y-66996097D01*
X123133659Y-66996096D01*
X123133655Y-66996094D01*
X122905413Y-66934938D01*
X122905403Y-66934936D01*
X122670001Y-66914341D01*
X122669999Y-66914341D01*
X122434596Y-66934936D01*
X122434586Y-66934938D01*
X122206344Y-66996094D01*
X122206335Y-66996098D01*
X121992171Y-67095964D01*
X121992169Y-67095965D01*
X121798597Y-67231505D01*
X121631505Y-67398597D01*
X121501575Y-67584158D01*
X121446998Y-67627783D01*
X121377500Y-67634977D01*
X121315145Y-67603454D01*
X121298425Y-67584158D01*
X121168494Y-67398597D01*
X121001402Y-67231506D01*
X121001395Y-67231501D01*
X120807834Y-67095967D01*
X120807830Y-67095965D01*
X120807828Y-67095964D01*
X120593663Y-66996097D01*
X120593659Y-66996096D01*
X120593655Y-66996094D01*
X120365413Y-66934938D01*
X120365403Y-66934936D01*
X120130001Y-66914341D01*
X120129999Y-66914341D01*
X119894596Y-66934936D01*
X119894586Y-66934938D01*
X119666344Y-66996094D01*
X119666335Y-66996098D01*
X119452171Y-67095964D01*
X119452169Y-67095965D01*
X119258597Y-67231505D01*
X119091508Y-67398594D01*
X118961269Y-67584595D01*
X118906692Y-67628219D01*
X118837193Y-67635412D01*
X118774839Y-67603890D01*
X118758119Y-67584594D01*
X118628113Y-67398926D01*
X118628108Y-67398920D01*
X118461082Y-67231894D01*
X118267576Y-67096398D01*
X118090000Y-67013593D01*
X118090000Y-68204174D01*
X118055925Y-68077007D01*
X117990099Y-67962993D01*
X117897007Y-67869901D01*
X117782993Y-67804075D01*
X117655826Y-67770000D01*
X117524174Y-67770000D01*
X117397007Y-67804075D01*
X117282993Y-67869901D01*
X117189901Y-67962993D01*
X117124075Y-68077007D01*
X117090000Y-68204174D01*
X117090000Y-67013593D01*
X117089999Y-67013593D01*
X116912422Y-67096399D01*
X116912420Y-67096400D01*
X116718926Y-67231886D01*
X116718920Y-67231891D01*
X116551891Y-67398920D01*
X116551890Y-67398922D01*
X116421880Y-67584595D01*
X116367303Y-67628219D01*
X116297804Y-67635412D01*
X116235450Y-67603890D01*
X116218730Y-67584594D01*
X116088494Y-67398597D01*
X115921402Y-67231506D01*
X115921395Y-67231501D01*
X115727834Y-67095967D01*
X115727830Y-67095965D01*
X115727828Y-67095964D01*
X115513663Y-66996097D01*
X115513659Y-66996096D01*
X115513655Y-66996094D01*
X115285413Y-66934938D01*
X115285403Y-66934936D01*
X115050001Y-66914341D01*
X115049999Y-66914341D01*
X114814596Y-66934936D01*
X114814586Y-66934938D01*
X114586344Y-66996094D01*
X114586335Y-66996098D01*
X114372171Y-67095964D01*
X114372169Y-67095965D01*
X114178597Y-67231505D01*
X114011505Y-67398597D01*
X113881575Y-67584158D01*
X113826998Y-67627783D01*
X113757500Y-67634977D01*
X113695145Y-67603454D01*
X113678425Y-67584158D01*
X113548494Y-67398597D01*
X113381402Y-67231506D01*
X113381395Y-67231501D01*
X113187834Y-67095967D01*
X113187830Y-67095965D01*
X113187828Y-67095964D01*
X112973663Y-66996097D01*
X112973659Y-66996096D01*
X112973655Y-66996094D01*
X112745413Y-66934938D01*
X112745403Y-66934936D01*
X112510001Y-66914341D01*
X112509999Y-66914341D01*
X112274596Y-66934936D01*
X112274586Y-66934938D01*
X112046344Y-66996094D01*
X112046335Y-66996098D01*
X111832171Y-67095964D01*
X111832169Y-67095965D01*
X111638597Y-67231505D01*
X111471505Y-67398597D01*
X111335965Y-67592169D01*
X111335964Y-67592171D01*
X111236098Y-67806335D01*
X111236094Y-67806344D01*
X111174938Y-68034586D01*
X111174936Y-68034596D01*
X111154341Y-68269999D01*
X104929785Y-68269999D01*
X105042754Y-68049041D01*
X105049209Y-68037890D01*
X105213351Y-67785641D01*
X105220933Y-67775221D01*
X105410428Y-67541433D01*
X105419059Y-67531852D01*
X105631852Y-67319059D01*
X105641433Y-67310428D01*
X105875221Y-67120933D01*
X105885641Y-67113351D01*
X106137890Y-66949209D01*
X106149041Y-66942754D01*
X106416995Y-66805758D01*
X106428764Y-66800496D01*
X106709510Y-66692136D01*
X106721769Y-66688124D01*
X107012289Y-66609563D01*
X107024883Y-66606854D01*
X107321965Y-66558961D01*
X107334805Y-66557572D01*
X107638278Y-66540688D01*
X107645118Y-66540498D01*
X165646943Y-66528433D01*
X165653806Y-66528623D01*
G37*
%TD.AperFunction*%
%TD*%
%TA.AperFunction,Conductor*%
%TO.N,GND_CAN*%
G36*
X137436061Y-96894597D02*
G01*
X137612941Y-96912018D01*
X137636769Y-96916757D01*
X137801001Y-96966576D01*
X137823453Y-96975877D01*
X137974798Y-97056772D01*
X137995010Y-97070277D01*
X138127666Y-97179145D01*
X138144854Y-97196333D01*
X138253722Y-97328989D01*
X138267227Y-97349201D01*
X138348121Y-97500543D01*
X138357424Y-97523001D01*
X138407240Y-97687224D01*
X138411982Y-97711065D01*
X138429403Y-97887938D01*
X138430000Y-97900092D01*
X138430000Y-110365907D01*
X138429403Y-110378061D01*
X138411982Y-110554934D01*
X138407240Y-110578775D01*
X138357424Y-110742998D01*
X138348121Y-110765456D01*
X138267227Y-110916798D01*
X138253722Y-110937010D01*
X138144854Y-111069666D01*
X138127666Y-111086854D01*
X137995010Y-111195722D01*
X137974798Y-111209227D01*
X137823456Y-111290121D01*
X137800998Y-111299424D01*
X137636775Y-111349240D01*
X137612934Y-111353982D01*
X137436061Y-111371403D01*
X137423907Y-111372000D01*
X130048000Y-111372000D01*
X130048000Y-112372000D01*
X130048000Y-112372003D01*
X130048000Y-113351981D01*
X130028315Y-113419020D01*
X129975511Y-113464775D01*
X129906353Y-113474719D01*
X129842797Y-113445694D01*
X129805023Y-113386916D01*
X129804225Y-113384075D01*
X129753578Y-113195060D01*
X129660779Y-112971021D01*
X129660772Y-112971006D01*
X129539519Y-112760990D01*
X129391889Y-112568594D01*
X129391883Y-112568587D01*
X129220412Y-112397116D01*
X129220405Y-112397110D01*
X129028009Y-112249480D01*
X128817993Y-112128227D01*
X128817978Y-112128220D01*
X128593939Y-112035421D01*
X128498000Y-112009714D01*
X128498000Y-113601050D01*
X128444224Y-113547274D01*
X128329574Y-113470668D01*
X128202182Y-113417901D01*
X128066944Y-113391000D01*
X127929056Y-113391000D01*
X127793818Y-113417901D01*
X127666426Y-113470668D01*
X127551776Y-113547274D01*
X127454274Y-113644776D01*
X127377668Y-113759426D01*
X127324901Y-113886818D01*
X127298000Y-114022056D01*
X127298000Y-114159944D01*
X127324901Y-114295182D01*
X127377668Y-114422574D01*
X127454274Y-114537224D01*
X127508050Y-114591000D01*
X126158367Y-114591000D01*
X126179653Y-114752687D01*
X126242421Y-114986939D01*
X126335220Y-115210978D01*
X126335227Y-115210993D01*
X126456480Y-115421009D01*
X126604110Y-115613405D01*
X126604116Y-115613412D01*
X126775587Y-115784883D01*
X126775594Y-115784889D01*
X126967990Y-115932519D01*
X127178006Y-116053772D01*
X127178016Y-116053777D01*
X127232073Y-116076168D01*
X127286476Y-116120009D01*
X127308541Y-116186303D01*
X127291262Y-116254003D01*
X127240124Y-116301613D01*
X127232073Y-116305290D01*
X127177794Y-116327772D01*
X127177785Y-116327777D01*
X126967706Y-116449067D01*
X126775263Y-116596733D01*
X126775256Y-116596739D01*
X126603739Y-116768256D01*
X126603733Y-116768263D01*
X126456067Y-116960706D01*
X126334777Y-117170785D01*
X126334773Y-117170794D01*
X126241947Y-117394895D01*
X126179161Y-117629214D01*
X126147500Y-117869711D01*
X126147500Y-118712288D01*
X126179161Y-118952785D01*
X126241947Y-119187104D01*
X126334773Y-119411205D01*
X126334776Y-119411212D01*
X126456064Y-119621289D01*
X126456066Y-119621292D01*
X126456067Y-119621293D01*
X126603733Y-119813736D01*
X126603739Y-119813743D01*
X126775256Y-119985260D01*
X126775262Y-119985265D01*
X126967711Y-120132936D01*
X127177788Y-120254224D01*
X127401900Y-120347054D01*
X127636211Y-120409838D01*
X127816586Y-120433584D01*
X127876711Y-120441500D01*
X127876712Y-120441500D01*
X128119289Y-120441500D01*
X128167388Y-120435167D01*
X128359789Y-120409838D01*
X128594100Y-120347054D01*
X128818212Y-120254224D01*
X129028289Y-120132936D01*
X129220738Y-119985265D01*
X129392265Y-119813738D01*
X129539936Y-119621289D01*
X129661224Y-119411212D01*
X129754054Y-119187100D01*
X129804226Y-118999855D01*
X129840590Y-118940198D01*
X129903437Y-118909669D01*
X129972813Y-118917964D01*
X130026691Y-118962449D01*
X130047965Y-119029001D01*
X130048000Y-119031952D01*
X130048000Y-121033907D01*
X130047403Y-121046061D01*
X130029982Y-121222934D01*
X130025240Y-121246775D01*
X129975424Y-121410998D01*
X129966122Y-121433455D01*
X129938026Y-121486020D01*
X129889064Y-121535865D01*
X129828667Y-121551568D01*
X119599333Y-121551568D01*
X119532294Y-121531883D01*
X119489975Y-121486022D01*
X119489974Y-121486020D01*
X119461875Y-121433450D01*
X119452575Y-121410998D01*
X119402757Y-121246769D01*
X119398018Y-121222941D01*
X119380597Y-121046061D01*
X119380000Y-121033907D01*
X119380000Y-113591000D01*
X126158366Y-113591000D01*
X127498000Y-113591000D01*
X127498000Y-112009714D01*
X127497999Y-112009714D01*
X127402060Y-112035421D01*
X127178021Y-112128220D01*
X127178006Y-112128227D01*
X126967990Y-112249480D01*
X126775594Y-112397110D01*
X126775587Y-112397116D01*
X126604116Y-112568587D01*
X126604110Y-112568594D01*
X126456480Y-112760990D01*
X126335227Y-112971006D01*
X126335220Y-112971021D01*
X126242421Y-113195060D01*
X126179653Y-113429312D01*
X126158366Y-113591000D01*
X119380000Y-113591000D01*
X119380000Y-101973996D01*
X122638435Y-101973996D01*
X122638435Y-101974003D01*
X122658630Y-102153249D01*
X122658631Y-102153254D01*
X122718211Y-102323523D01*
X122814184Y-102476262D01*
X122941738Y-102603816D01*
X123094478Y-102699789D01*
X123264745Y-102759368D01*
X123264750Y-102759369D01*
X123443996Y-102779565D01*
X123444000Y-102779565D01*
X123444004Y-102779565D01*
X123623249Y-102759369D01*
X123623252Y-102759368D01*
X123623255Y-102759368D01*
X123793522Y-102699789D01*
X123946262Y-102603816D01*
X124073816Y-102476262D01*
X124169789Y-102323522D01*
X124229368Y-102153255D01*
X124249565Y-101974000D01*
X124249565Y-101973996D01*
X132290435Y-101973996D01*
X132290435Y-101974003D01*
X132310630Y-102153249D01*
X132310631Y-102153254D01*
X132370211Y-102323523D01*
X132466184Y-102476262D01*
X132593738Y-102603816D01*
X132746478Y-102699789D01*
X132916745Y-102759368D01*
X132916750Y-102759369D01*
X133095996Y-102779565D01*
X133096000Y-102779565D01*
X133096004Y-102779565D01*
X133275249Y-102759369D01*
X133275252Y-102759368D01*
X133275255Y-102759368D01*
X133445522Y-102699789D01*
X133598262Y-102603816D01*
X133725816Y-102476262D01*
X133821789Y-102323522D01*
X133881368Y-102153255D01*
X133901565Y-101974000D01*
X133881368Y-101794745D01*
X133821789Y-101624478D01*
X133725816Y-101471738D01*
X133598262Y-101344184D01*
X133445523Y-101248211D01*
X133275254Y-101188631D01*
X133275249Y-101188630D01*
X133096004Y-101168435D01*
X133095996Y-101168435D01*
X132916750Y-101188630D01*
X132916745Y-101188631D01*
X132746476Y-101248211D01*
X132593737Y-101344184D01*
X132466184Y-101471737D01*
X132370211Y-101624476D01*
X132310631Y-101794745D01*
X132310630Y-101794750D01*
X132290435Y-101973996D01*
X124249565Y-101973996D01*
X124229368Y-101794745D01*
X124169789Y-101624478D01*
X124073816Y-101471738D01*
X123946262Y-101344184D01*
X123793523Y-101248211D01*
X123623254Y-101188631D01*
X123623249Y-101188630D01*
X123444004Y-101168435D01*
X123443996Y-101168435D01*
X123264750Y-101188630D01*
X123264745Y-101188631D01*
X123094476Y-101248211D01*
X122941737Y-101344184D01*
X122814184Y-101471737D01*
X122718211Y-101624476D01*
X122658631Y-101794745D01*
X122658630Y-101794750D01*
X122638435Y-101973996D01*
X119380000Y-101973996D01*
X119380000Y-97900092D01*
X119380597Y-97887938D01*
X119398018Y-97711056D01*
X119402757Y-97687232D01*
X119452577Y-97522994D01*
X119461875Y-97500549D01*
X119542775Y-97349195D01*
X119556272Y-97328995D01*
X119665149Y-97196328D01*
X119682328Y-97179149D01*
X119814995Y-97070272D01*
X119835195Y-97056775D01*
X119986549Y-96975875D01*
X120008994Y-96966577D01*
X120173232Y-96916757D01*
X120197056Y-96912018D01*
X120373939Y-96894597D01*
X120386093Y-96894000D01*
X137423907Y-96894000D01*
X137436061Y-96894597D01*
G37*
%TD.AperFunction*%
%TD*%
M02*
