%TF.GenerationSoftware,KiCad,Pcbnew,8.0.3-8.0.3-0~ubuntu23.10.1*%
%TF.CreationDate,2024-09-16T17:13:33+03:00*%
%TF.ProjectId,Raspberry Pi 5 shield,52617370-6265-4727-9279-205069203520,rev?*%
%TF.SameCoordinates,Original*%
%TF.FileFunction,Copper,L3,Inr*%
%TF.FilePolarity,Positive*%
%FSLAX46Y46*%
G04 Gerber Fmt 4.6, Leading zero omitted, Abs format (unit mm)*
G04 Created by KiCad (PCBNEW 8.0.3-8.0.3-0~ubuntu23.10.1) date 2024-09-16 17:13:33*
%MOMM*%
%LPD*%
G01*
G04 APERTURE LIST*
G04 Aperture macros list*
%AMRoundRect*
0 Rectangle with rounded corners*
0 $1 Rounding radius*
0 $2 $3 $4 $5 $6 $7 $8 $9 X,Y pos of 4 corners*
0 Add a 4 corners polygon primitive as box body*
4,1,4,$2,$3,$4,$5,$6,$7,$8,$9,$2,$3,0*
0 Add four circle primitives for the rounded corners*
1,1,$1+$1,$2,$3*
1,1,$1+$1,$4,$5*
1,1,$1+$1,$6,$7*
1,1,$1+$1,$8,$9*
0 Add four rect primitives between the rounded corners*
20,1,$1+$1,$2,$3,$4,$5,0*
20,1,$1+$1,$4,$5,$6,$7,0*
20,1,$1+$1,$6,$7,$8,$9,0*
20,1,$1+$1,$8,$9,$2,$3,0*%
G04 Aperture macros list end*
%TA.AperFunction,ComponentPad*%
%ADD10C,1.900000*%
%TD*%
%TA.AperFunction,ComponentPad*%
%ADD11RoundRect,0.250001X1.099999X1.399999X-1.099999X1.399999X-1.099999X-1.399999X1.099999X-1.399999X0*%
%TD*%
%TA.AperFunction,ComponentPad*%
%ADD12O,2.700000X3.300000*%
%TD*%
%TA.AperFunction,ComponentPad*%
%ADD13R,1.700000X1.700000*%
%TD*%
%TA.AperFunction,ComponentPad*%
%ADD14O,1.700000X1.700000*%
%TD*%
%TA.AperFunction,ViaPad*%
%ADD15C,0.600000*%
%TD*%
G04 APERTURE END LIST*
D10*
%TO.N,+24V*%
%TO.C,PS1*%
X157734000Y-104976000D03*
%TO.N,GNDPWR*%
X152654000Y-104976000D03*
%TO.N,+5V*%
X165354000Y-84656000D03*
%TO.N,Net-(PS1-TRIM)*%
X155194000Y-84656000D03*
%TO.N,GND*%
X145034000Y-84656000D03*
%TO.N,unconnected-(PS1-R.C.-Pad6)*%
X145034000Y-104976000D03*
%TD*%
D11*
%TO.N,+24V*%
%TO.C,J3*%
X144780000Y-118291000D03*
D12*
%TO.N,unconnected-(J3-Pin_2-Pad2)*%
X140598000Y-118291000D03*
%TO.N,unconnected-(J3-Pin_3-Pad3)*%
X136398000Y-118291000D03*
%TO.N,unconnected-(J3-Pin_4-Pad4)*%
X132207000Y-118291000D03*
%TO.N,unconnected-(J3-Pin_5-Pad5)*%
X127998000Y-118291000D03*
%TO.N,GNDPWR*%
X144780000Y-114091000D03*
%TO.N,unconnected-(J3-Pin_7-Pad7)*%
X140598000Y-114091000D03*
%TO.N,CANH*%
X136398000Y-114091000D03*
%TO.N,CANL*%
X132207000Y-114091000D03*
%TO.N,GND_CAN*%
X127998000Y-114091000D03*
%TD*%
D13*
%TO.N,unconnected-(J2-Pin_1-Pad1)*%
%TO.C,J2*%
X164370000Y-111270000D03*
D14*
%TO.N,unconnected-(J2-Pin_2-Pad2)*%
X166910000Y-111270000D03*
%TO.N,unconnected-(J2-Pin_3-Pad3)*%
X164370000Y-113810000D03*
%TO.N,unconnected-(J2-Pin_4-Pad4)*%
X166910000Y-113810000D03*
%TD*%
D13*
%TO.N,+3.3V*%
%TO.C,J1*%
X112510000Y-70810000D03*
D14*
%TO.N,+5V*%
X112510000Y-68270000D03*
%TO.N,unconnected-(J1-Pin_3-Pad3)*%
X115050000Y-70810000D03*
%TO.N,+5V*%
X115050000Y-68270000D03*
%TO.N,unconnected-(J1-Pin_5-Pad5)*%
X117590000Y-70810000D03*
%TO.N,GND*%
X117590000Y-68270000D03*
%TO.N,unconnected-(J1-Pin_7-Pad7)*%
X120130000Y-70810000D03*
%TO.N,unconnected-(J1-Pin_8-Pad8)*%
X120130000Y-68270000D03*
%TO.N,GND*%
X122670000Y-70810000D03*
%TO.N,unconnected-(J1-Pin_10-Pad10)*%
X122670000Y-68270000D03*
%TO.N,GPIO_17*%
X125210000Y-70810000D03*
%TO.N,GPIO_18*%
X125210000Y-68270000D03*
%TO.N,GPIO_27*%
X127750000Y-70810000D03*
%TO.N,GND*%
X127750000Y-68270000D03*
%TO.N,GPIO_22*%
X130290000Y-70810000D03*
%TO.N,GPIO_23*%
X130290000Y-68270000D03*
%TO.N,+3.3V*%
X132830000Y-70810000D03*
%TO.N,GPIO_24*%
X132830000Y-68270000D03*
%TO.N,SPI_MOSI*%
X135370000Y-70810000D03*
%TO.N,GND*%
X135370000Y-68270000D03*
%TO.N,SPI_MISO*%
X137910000Y-70810000D03*
%TO.N,~{INT}*%
X137910000Y-68270000D03*
%TO.N,SPI_SCLK*%
X140450000Y-70810000D03*
%TO.N,CE0*%
X140450000Y-68270000D03*
%TO.N,GND*%
X142990000Y-70810000D03*
%TO.N,CE1*%
X142990000Y-68270000D03*
%TO.N,unconnected-(J1-Pin_27-Pad27)*%
X145530000Y-70810000D03*
%TO.N,unconnected-(J1-Pin_28-Pad28)*%
X145530000Y-68270000D03*
%TO.N,GPIO_5*%
X148070000Y-70810000D03*
%TO.N,GND*%
X148070000Y-68270000D03*
%TO.N,GPIO_6*%
X150610000Y-70810000D03*
%TO.N,GPIO_12*%
X150610000Y-68270000D03*
%TO.N,GPIO_13*%
X153150000Y-70810000D03*
%TO.N,GND*%
X153150000Y-68270000D03*
%TO.N,GPIO_19*%
X155690000Y-70810000D03*
%TO.N,GPIO_16*%
X155690000Y-68270000D03*
%TO.N,GPIO_26*%
X158230000Y-70810000D03*
%TO.N,GPIO_20*%
X158230000Y-68270000D03*
%TO.N,GND*%
X160770000Y-70810000D03*
%TO.N,GPIO_21*%
X160770000Y-68270000D03*
%TD*%
D15*
%TO.N,GNDPWR*%
X162306000Y-116706000D03*
%TO.N,Net-(D1-Visoin)*%
X133096000Y-101974000D03*
X123444000Y-101974000D03*
%TO.N,+5V*%
X124714000Y-85718000D03*
X126238000Y-76320000D03*
X126238000Y-74796000D03*
X108712000Y-76320000D03*
X147828000Y-75304000D03*
X147828000Y-73018000D03*
X147828000Y-76066000D03*
X126238000Y-73272000D03*
X108712000Y-77082000D03*
X147828000Y-73780000D03*
X147828000Y-74542000D03*
X107442000Y-96640000D03*
X147828000Y-76828000D03*
X126238000Y-75558000D03*
X126238000Y-74034000D03*
X126238000Y-77082000D03*
%TO.N,+3.3V*%
X127762000Y-85718000D03*
X145796000Y-73780000D03*
X129032000Y-76828000D03*
X110490000Y-96640000D03*
%TO.N,GND*%
X122174000Y-80892000D03*
X110998000Y-80892000D03*
X139192000Y-85972000D03*
X135890000Y-86734000D03*
X140208000Y-91560000D03*
X123952000Y-83432000D03*
X110998000Y-85972000D03*
X147828000Y-79876000D03*
X112776000Y-83432000D03*
X120396000Y-83432000D03*
X140970000Y-79876000D03*
X109220000Y-83432000D03*
%TO.N,GND_CAN*%
X133096000Y-106038000D03*
X136144000Y-100704000D03*
X120396000Y-100704000D03*
X124460000Y-106038000D03*
%TO.N,+24V*%
X162306000Y-118738000D03*
%TD*%
%TA.AperFunction,Conductor*%
%TO.N,+3.3V*%
G36*
X133330000Y-72066405D02*
G01*
X133507575Y-71983601D01*
X133507577Y-71983600D01*
X133701082Y-71848105D01*
X133868105Y-71681082D01*
X133998119Y-71495405D01*
X134052696Y-71451781D01*
X134122195Y-71444588D01*
X134184549Y-71476110D01*
X134201269Y-71495405D01*
X134331505Y-71681401D01*
X134498599Y-71848495D01*
X134575135Y-71902086D01*
X134692165Y-71984032D01*
X134692167Y-71984033D01*
X134692170Y-71984035D01*
X134906337Y-72083903D01*
X135134592Y-72145063D01*
X135305319Y-72160000D01*
X135369999Y-72165659D01*
X135370000Y-72165659D01*
X135370001Y-72165659D01*
X135434681Y-72160000D01*
X135605408Y-72145063D01*
X135833663Y-72083903D01*
X136047830Y-71984035D01*
X136241401Y-71848495D01*
X136408495Y-71681401D01*
X136538425Y-71495842D01*
X136593002Y-71452217D01*
X136662500Y-71445023D01*
X136724855Y-71476546D01*
X136741575Y-71495842D01*
X136871281Y-71681082D01*
X136871505Y-71681401D01*
X137038599Y-71848495D01*
X137115135Y-71902086D01*
X137232165Y-71984032D01*
X137232167Y-71984033D01*
X137232170Y-71984035D01*
X137446337Y-72083903D01*
X137674592Y-72145063D01*
X137845319Y-72160000D01*
X137909999Y-72165659D01*
X137910000Y-72165659D01*
X137910001Y-72165659D01*
X137974681Y-72160000D01*
X138145408Y-72145063D01*
X138373663Y-72083903D01*
X138587830Y-71984035D01*
X138781401Y-71848495D01*
X138948495Y-71681401D01*
X139078425Y-71495842D01*
X139133002Y-71452217D01*
X139202500Y-71445023D01*
X139264855Y-71476546D01*
X139281575Y-71495842D01*
X139411281Y-71681082D01*
X139411505Y-71681401D01*
X139578599Y-71848495D01*
X139655135Y-71902086D01*
X139772165Y-71984032D01*
X139772167Y-71984033D01*
X139772170Y-71984035D01*
X139986337Y-72083903D01*
X140214592Y-72145063D01*
X140385319Y-72160000D01*
X140449999Y-72165659D01*
X140450000Y-72165659D01*
X140450001Y-72165659D01*
X140514681Y-72160000D01*
X140685408Y-72145063D01*
X140913663Y-72083903D01*
X141127830Y-71984035D01*
X141321401Y-71848495D01*
X141488495Y-71681401D01*
X141618425Y-71495842D01*
X141673002Y-71452217D01*
X141742500Y-71445023D01*
X141804855Y-71476546D01*
X141821575Y-71495842D01*
X141951281Y-71681082D01*
X141951505Y-71681401D01*
X142118599Y-71848495D01*
X142195135Y-71902086D01*
X142312165Y-71984032D01*
X142312167Y-71984033D01*
X142312170Y-71984035D01*
X142526337Y-72083903D01*
X142754592Y-72145063D01*
X142925319Y-72160000D01*
X142989999Y-72165659D01*
X142990000Y-72165659D01*
X142990001Y-72165659D01*
X143054681Y-72160000D01*
X143225408Y-72145063D01*
X143453663Y-72083903D01*
X143667830Y-71984035D01*
X143861401Y-71848495D01*
X144028495Y-71681401D01*
X144158425Y-71495842D01*
X144213002Y-71452217D01*
X144282500Y-71445023D01*
X144344855Y-71476546D01*
X144361575Y-71495842D01*
X144491281Y-71681082D01*
X144491505Y-71681401D01*
X144658599Y-71848495D01*
X144735135Y-71902086D01*
X144852165Y-71984032D01*
X144852167Y-71984033D01*
X144852170Y-71984035D01*
X145066337Y-72083903D01*
X145294592Y-72145063D01*
X145465319Y-72160000D01*
X145529999Y-72165659D01*
X145530000Y-72165659D01*
X145530001Y-72165659D01*
X145594681Y-72160000D01*
X145765408Y-72145063D01*
X145893907Y-72110632D01*
X145963757Y-72112295D01*
X146021619Y-72151458D01*
X146049123Y-72215686D01*
X146050000Y-72230407D01*
X146050000Y-83355062D01*
X146030315Y-83422101D01*
X145977511Y-83467856D01*
X145908353Y-83477800D01*
X145849838Y-83452916D01*
X145830068Y-83437529D01*
X145830067Y-83437528D01*
X145733067Y-83385034D01*
X145618657Y-83323118D01*
X145618652Y-83323116D01*
X145391300Y-83245066D01*
X145213468Y-83215391D01*
X145154192Y-83205500D01*
X144913808Y-83205500D01*
X144866387Y-83213413D01*
X144676699Y-83245066D01*
X144449347Y-83323116D01*
X144449342Y-83323118D01*
X144237930Y-83437529D01*
X144237924Y-83437533D01*
X144048242Y-83585169D01*
X144048239Y-83585172D01*
X143885430Y-83762029D01*
X143885427Y-83762033D01*
X143753951Y-83963270D01*
X143657389Y-84183410D01*
X143598379Y-84416440D01*
X143578529Y-84655994D01*
X143578529Y-84656005D01*
X143598379Y-84895559D01*
X143657389Y-85128589D01*
X143753951Y-85348729D01*
X143878096Y-85538745D01*
X143885429Y-85549969D01*
X144048236Y-85726825D01*
X144048239Y-85726827D01*
X144048242Y-85726830D01*
X144237924Y-85874466D01*
X144237930Y-85874470D01*
X144237933Y-85874472D01*
X144449344Y-85988882D01*
X144449347Y-85988883D01*
X144676699Y-86066933D01*
X144676701Y-86066933D01*
X144676703Y-86066934D01*
X144913808Y-86106500D01*
X144913809Y-86106500D01*
X145154191Y-86106500D01*
X145154192Y-86106500D01*
X145391297Y-86066934D01*
X145618656Y-85988882D01*
X145618659Y-85988879D01*
X145620987Y-85988081D01*
X145690785Y-85984931D01*
X145751207Y-86020017D01*
X145783067Y-86082200D01*
X145776252Y-86151736D01*
X145739915Y-86201215D01*
X145615010Y-86303722D01*
X145594798Y-86317227D01*
X145443456Y-86398121D01*
X145420998Y-86407424D01*
X145256775Y-86457240D01*
X145232934Y-86461982D01*
X145056061Y-86479403D01*
X145043907Y-86480000D01*
X140037097Y-86480000D01*
X139970058Y-86460315D01*
X139924303Y-86407511D01*
X139914359Y-86338353D01*
X139920056Y-86315045D01*
X139977366Y-86151262D01*
X139977369Y-86151249D01*
X139997565Y-85972003D01*
X139997565Y-85971996D01*
X139977369Y-85792750D01*
X139977368Y-85792745D01*
X139954302Y-85726827D01*
X139917789Y-85622478D01*
X139821816Y-85469738D01*
X139694262Y-85342184D01*
X139541523Y-85246211D01*
X139371254Y-85186631D01*
X139371249Y-85186630D01*
X139192004Y-85166435D01*
X139191996Y-85166435D01*
X139012750Y-85186630D01*
X139012745Y-85186631D01*
X138842476Y-85246211D01*
X138689737Y-85342184D01*
X138562184Y-85469737D01*
X138466211Y-85622476D01*
X138406631Y-85792745D01*
X138406630Y-85792750D01*
X138386435Y-85971996D01*
X138386435Y-85972003D01*
X138406630Y-86151249D01*
X138406633Y-86151262D01*
X138463944Y-86315045D01*
X138467506Y-86384824D01*
X138432778Y-86445451D01*
X138370784Y-86477679D01*
X138346903Y-86480000D01*
X136737196Y-86480000D01*
X136670157Y-86460315D01*
X136624402Y-86407511D01*
X136620155Y-86396955D01*
X136615789Y-86384479D01*
X136615787Y-86384475D01*
X136572161Y-86315045D01*
X136519816Y-86231738D01*
X136392262Y-86104184D01*
X136332979Y-86066934D01*
X136239523Y-86008211D01*
X136069254Y-85948631D01*
X136069249Y-85948630D01*
X135890004Y-85928435D01*
X135889996Y-85928435D01*
X135710750Y-85948630D01*
X135710745Y-85948631D01*
X135540476Y-86008211D01*
X135387737Y-86104184D01*
X135260184Y-86231737D01*
X135164212Y-86384475D01*
X135164210Y-86384479D01*
X135159845Y-86396955D01*
X135119123Y-86453731D01*
X135054171Y-86479478D01*
X135042804Y-86480000D01*
X127752093Y-86480000D01*
X127739939Y-86479403D01*
X127563065Y-86461982D01*
X127539224Y-86457240D01*
X127375001Y-86407424D01*
X127352543Y-86398121D01*
X127201201Y-86317227D01*
X127180989Y-86303722D01*
X127048333Y-86194854D01*
X127031145Y-86177666D01*
X126922277Y-86045010D01*
X126908772Y-86024798D01*
X126889574Y-85988881D01*
X126827877Y-85873453D01*
X126818575Y-85850998D01*
X126800906Y-85792750D01*
X126768757Y-85686769D01*
X126764018Y-85662941D01*
X126746597Y-85486061D01*
X126746000Y-85473907D01*
X126746000Y-79875996D01*
X140164435Y-79875996D01*
X140164435Y-79876003D01*
X140184630Y-80055249D01*
X140184631Y-80055254D01*
X140244211Y-80225523D01*
X140267247Y-80262184D01*
X140340184Y-80378262D01*
X140467738Y-80505816D01*
X140620478Y-80601789D01*
X140790745Y-80661368D01*
X140790750Y-80661369D01*
X140969996Y-80681565D01*
X140970000Y-80681565D01*
X140970004Y-80681565D01*
X141149249Y-80661369D01*
X141149252Y-80661368D01*
X141149255Y-80661368D01*
X141319522Y-80601789D01*
X141472262Y-80505816D01*
X141599816Y-80378262D01*
X141695789Y-80225522D01*
X141755368Y-80055255D01*
X141775565Y-79876000D01*
X141755368Y-79696745D01*
X141695789Y-79526478D01*
X141599816Y-79373738D01*
X141472262Y-79246184D01*
X141319523Y-79150211D01*
X141149254Y-79090631D01*
X141149249Y-79090630D01*
X140970004Y-79070435D01*
X140969996Y-79070435D01*
X140790750Y-79090630D01*
X140790745Y-79090631D01*
X140620476Y-79150211D01*
X140467737Y-79246184D01*
X140340184Y-79373737D01*
X140244211Y-79526476D01*
X140184631Y-79696745D01*
X140184630Y-79696750D01*
X140164435Y-79875996D01*
X126746000Y-79875996D01*
X126746000Y-77757440D01*
X126765685Y-77690401D01*
X126782319Y-77669759D01*
X126867816Y-77584262D01*
X126963789Y-77431522D01*
X127023368Y-77261255D01*
X127043565Y-77082000D01*
X127023368Y-76902745D01*
X127023367Y-76902743D01*
X127023366Y-76902737D01*
X126967106Y-76741955D01*
X126963544Y-76672176D01*
X126967106Y-76660045D01*
X127023366Y-76499262D01*
X127023369Y-76499249D01*
X127043565Y-76320003D01*
X127043565Y-76319996D01*
X127023369Y-76140750D01*
X127023366Y-76140737D01*
X126967106Y-75979955D01*
X126963544Y-75910176D01*
X126967106Y-75898045D01*
X127023366Y-75737262D01*
X127023369Y-75737249D01*
X127043565Y-75558003D01*
X127043565Y-75557996D01*
X127023369Y-75378750D01*
X127023366Y-75378737D01*
X126967106Y-75217955D01*
X126963544Y-75148176D01*
X126967106Y-75136045D01*
X127023366Y-74975262D01*
X127023369Y-74975249D01*
X127043565Y-74796003D01*
X127043565Y-74795996D01*
X127023369Y-74616750D01*
X127023366Y-74616737D01*
X126967106Y-74455955D01*
X126963544Y-74386176D01*
X126967106Y-74374045D01*
X127023366Y-74213262D01*
X127023369Y-74213249D01*
X127043565Y-74034003D01*
X127043565Y-74033996D01*
X127023369Y-73854750D01*
X127023366Y-73854737D01*
X126967106Y-73693955D01*
X126963544Y-73624176D01*
X126967106Y-73612045D01*
X127023366Y-73451262D01*
X127023369Y-73451249D01*
X127043565Y-73272003D01*
X127043565Y-73271996D01*
X127023369Y-73092750D01*
X127023368Y-73092745D01*
X126963788Y-72922476D01*
X126867815Y-72769737D01*
X126740262Y-72642184D01*
X126587523Y-72546211D01*
X126417254Y-72486631D01*
X126417249Y-72486630D01*
X126238004Y-72466435D01*
X126237996Y-72466435D01*
X126058750Y-72486630D01*
X126058745Y-72486631D01*
X125888476Y-72546211D01*
X125735737Y-72642184D01*
X125650241Y-72727681D01*
X125588918Y-72761166D01*
X125562560Y-72764000D01*
X112512093Y-72764000D01*
X112499939Y-72763403D01*
X112323065Y-72745982D01*
X112299224Y-72741240D01*
X112135001Y-72691424D01*
X112112543Y-72682121D01*
X111961201Y-72601227D01*
X111940989Y-72587722D01*
X111808333Y-72478854D01*
X111791145Y-72461666D01*
X111709897Y-72362665D01*
X111682584Y-72298355D01*
X111694375Y-72229487D01*
X111741527Y-72177927D01*
X111805750Y-72160000D01*
X112010000Y-72160000D01*
X112010000Y-70875826D01*
X112044075Y-71002993D01*
X112109901Y-71117007D01*
X112202993Y-71210099D01*
X112317007Y-71275925D01*
X112444174Y-71310000D01*
X112575826Y-71310000D01*
X112702993Y-71275925D01*
X112817007Y-71210099D01*
X112910099Y-71117007D01*
X112975925Y-71002993D01*
X113010000Y-70875826D01*
X113010000Y-72160000D01*
X113407828Y-72160000D01*
X113407844Y-72159999D01*
X113467372Y-72153598D01*
X113467379Y-72153596D01*
X113602086Y-72103354D01*
X113602093Y-72103350D01*
X113717187Y-72017190D01*
X113717190Y-72017187D01*
X113803350Y-71902093D01*
X113803354Y-71902086D01*
X113852422Y-71770529D01*
X113894293Y-71714595D01*
X113959757Y-71690178D01*
X114028030Y-71705030D01*
X114056285Y-71726181D01*
X114178599Y-71848495D01*
X114255135Y-71902086D01*
X114372165Y-71984032D01*
X114372167Y-71984033D01*
X114372170Y-71984035D01*
X114586337Y-72083903D01*
X114814592Y-72145063D01*
X114985319Y-72160000D01*
X115049999Y-72165659D01*
X115050000Y-72165659D01*
X115050001Y-72165659D01*
X115114681Y-72160000D01*
X115285408Y-72145063D01*
X115513663Y-72083903D01*
X115727830Y-71984035D01*
X115921401Y-71848495D01*
X116088495Y-71681401D01*
X116218425Y-71495842D01*
X116273002Y-71452217D01*
X116342500Y-71445023D01*
X116404855Y-71476546D01*
X116421575Y-71495842D01*
X116551281Y-71681082D01*
X116551505Y-71681401D01*
X116718599Y-71848495D01*
X116795135Y-71902086D01*
X116912165Y-71984032D01*
X116912167Y-71984033D01*
X116912170Y-71984035D01*
X117126337Y-72083903D01*
X117354592Y-72145063D01*
X117525319Y-72160000D01*
X117589999Y-72165659D01*
X117590000Y-72165659D01*
X117590001Y-72165659D01*
X117654681Y-72160000D01*
X117825408Y-72145063D01*
X118053663Y-72083903D01*
X118267830Y-71984035D01*
X118461401Y-71848495D01*
X118628495Y-71681401D01*
X118758425Y-71495842D01*
X118813002Y-71452217D01*
X118882500Y-71445023D01*
X118944855Y-71476546D01*
X118961575Y-71495842D01*
X119091281Y-71681082D01*
X119091505Y-71681401D01*
X119258599Y-71848495D01*
X119335135Y-71902086D01*
X119452165Y-71984032D01*
X119452167Y-71984033D01*
X119452170Y-71984035D01*
X119666337Y-72083903D01*
X119894592Y-72145063D01*
X120065319Y-72160000D01*
X120129999Y-72165659D01*
X120130000Y-72165659D01*
X120130001Y-72165659D01*
X120194681Y-72160000D01*
X120365408Y-72145063D01*
X120593663Y-72083903D01*
X120807830Y-71984035D01*
X121001401Y-71848495D01*
X121168495Y-71681401D01*
X121298425Y-71495842D01*
X121353002Y-71452217D01*
X121422500Y-71445023D01*
X121484855Y-71476546D01*
X121501575Y-71495842D01*
X121631281Y-71681082D01*
X121631505Y-71681401D01*
X121798599Y-71848495D01*
X121875135Y-71902086D01*
X121992165Y-71984032D01*
X121992167Y-71984033D01*
X121992170Y-71984035D01*
X122206337Y-72083903D01*
X122434592Y-72145063D01*
X122605319Y-72160000D01*
X122669999Y-72165659D01*
X122670000Y-72165659D01*
X122670001Y-72165659D01*
X122734681Y-72160000D01*
X122905408Y-72145063D01*
X123133663Y-72083903D01*
X123347830Y-71984035D01*
X123541401Y-71848495D01*
X123708495Y-71681401D01*
X123838425Y-71495842D01*
X123893002Y-71452217D01*
X123962500Y-71445023D01*
X124024855Y-71476546D01*
X124041575Y-71495842D01*
X124171281Y-71681082D01*
X124171505Y-71681401D01*
X124338599Y-71848495D01*
X124415135Y-71902086D01*
X124532165Y-71984032D01*
X124532167Y-71984033D01*
X124532170Y-71984035D01*
X124746337Y-72083903D01*
X124974592Y-72145063D01*
X125145319Y-72160000D01*
X125209999Y-72165659D01*
X125210000Y-72165659D01*
X125210001Y-72165659D01*
X125274681Y-72160000D01*
X125445408Y-72145063D01*
X125673663Y-72083903D01*
X125887830Y-71984035D01*
X126081401Y-71848495D01*
X126248495Y-71681401D01*
X126378425Y-71495842D01*
X126433002Y-71452217D01*
X126502500Y-71445023D01*
X126564855Y-71476546D01*
X126581575Y-71495842D01*
X126711281Y-71681082D01*
X126711505Y-71681401D01*
X126878599Y-71848495D01*
X126955135Y-71902086D01*
X127072165Y-71984032D01*
X127072167Y-71984033D01*
X127072170Y-71984035D01*
X127286337Y-72083903D01*
X127514592Y-72145063D01*
X127685319Y-72160000D01*
X127749999Y-72165659D01*
X127750000Y-72165659D01*
X127750001Y-72165659D01*
X127814681Y-72160000D01*
X127985408Y-72145063D01*
X128213663Y-72083903D01*
X128427830Y-71984035D01*
X128621401Y-71848495D01*
X128788495Y-71681401D01*
X128918425Y-71495842D01*
X128973002Y-71452217D01*
X129042500Y-71445023D01*
X129104855Y-71476546D01*
X129121575Y-71495842D01*
X129251281Y-71681082D01*
X129251505Y-71681401D01*
X129418599Y-71848495D01*
X129495135Y-71902086D01*
X129612165Y-71984032D01*
X129612167Y-71984033D01*
X129612170Y-71984035D01*
X129826337Y-72083903D01*
X130054592Y-72145063D01*
X130225319Y-72160000D01*
X130289999Y-72165659D01*
X130290000Y-72165659D01*
X130290001Y-72165659D01*
X130354681Y-72160000D01*
X130525408Y-72145063D01*
X130753663Y-72083903D01*
X130967830Y-71984035D01*
X131161401Y-71848495D01*
X131328495Y-71681401D01*
X131458730Y-71495405D01*
X131513307Y-71451781D01*
X131582805Y-71444587D01*
X131645160Y-71476110D01*
X131661879Y-71495405D01*
X131791890Y-71681078D01*
X131958917Y-71848105D01*
X132152422Y-71983600D01*
X132152424Y-71983601D01*
X132329999Y-72066405D01*
X132330000Y-72066405D01*
X132330000Y-70875826D01*
X132364075Y-71002993D01*
X132429901Y-71117007D01*
X132522993Y-71210099D01*
X132637007Y-71275925D01*
X132764174Y-71310000D01*
X132895826Y-71310000D01*
X133022993Y-71275925D01*
X133137007Y-71210099D01*
X133230099Y-71117007D01*
X133295925Y-71002993D01*
X133330000Y-70875826D01*
X133330000Y-72066405D01*
G37*
%TD.AperFunction*%
%TA.AperFunction,Conductor*%
G36*
X112317007Y-70344075D02*
G01*
X112202993Y-70409901D01*
X112109901Y-70502993D01*
X112044075Y-70617007D01*
X112010000Y-70744174D01*
X112010000Y-70434000D01*
X112029685Y-70366961D01*
X112082489Y-70321206D01*
X112134000Y-70310000D01*
X112444174Y-70310000D01*
X112317007Y-70344075D01*
G37*
%TD.AperFunction*%
%TA.AperFunction,Conductor*%
G36*
X112953039Y-70329685D02*
G01*
X112998794Y-70382489D01*
X113010000Y-70434000D01*
X113010000Y-70744174D01*
X112975925Y-70617007D01*
X112910099Y-70502993D01*
X112817007Y-70409901D01*
X112702993Y-70344075D01*
X112575826Y-70310000D01*
X112886000Y-70310000D01*
X112953039Y-70329685D01*
G37*
%TD.AperFunction*%
%TA.AperFunction,Conductor*%
G36*
X132637007Y-70344075D02*
G01*
X132522993Y-70409901D01*
X132429901Y-70502993D01*
X132364075Y-70617007D01*
X132330000Y-70744174D01*
X132330000Y-70434000D01*
X132349685Y-70366961D01*
X132402489Y-70321206D01*
X132454000Y-70310000D01*
X132764174Y-70310000D01*
X132637007Y-70344075D01*
G37*
%TD.AperFunction*%
%TA.AperFunction,Conductor*%
G36*
X133273039Y-70329685D02*
G01*
X133318794Y-70382489D01*
X133330000Y-70434000D01*
X133330000Y-70744174D01*
X133295925Y-70617007D01*
X133230099Y-70502993D01*
X133137007Y-70409901D01*
X133022993Y-70344075D01*
X132895826Y-70310000D01*
X133206000Y-70310000D01*
X133273039Y-70329685D01*
G37*
%TD.AperFunction*%
%TD*%
M02*
