%TF.GenerationSoftware,KiCad,Pcbnew,8.0.3-8.0.3-0~ubuntu23.10.1*%
%TF.CreationDate,2024-09-16T17:13:33+03:00*%
%TF.ProjectId,Raspberry Pi 5 shield,52617370-6265-4727-9279-205069203520,rev?*%
%TF.SameCoordinates,Original*%
%TF.FileFunction,Copper,L2,Inr*%
%TF.FilePolarity,Positive*%
%FSLAX46Y46*%
G04 Gerber Fmt 4.6, Leading zero omitted, Abs format (unit mm)*
G04 Created by KiCad (PCBNEW 8.0.3-8.0.3-0~ubuntu23.10.1) date 2024-09-16 17:13:33*
%MOMM*%
%LPD*%
G01*
G04 APERTURE LIST*
G04 Aperture macros list*
%AMRoundRect*
0 Rectangle with rounded corners*
0 $1 Rounding radius*
0 $2 $3 $4 $5 $6 $7 $8 $9 X,Y pos of 4 corners*
0 Add a 4 corners polygon primitive as box body*
4,1,4,$2,$3,$4,$5,$6,$7,$8,$9,$2,$3,0*
0 Add four circle primitives for the rounded corners*
1,1,$1+$1,$2,$3*
1,1,$1+$1,$4,$5*
1,1,$1+$1,$6,$7*
1,1,$1+$1,$8,$9*
0 Add four rect primitives between the rounded corners*
20,1,$1+$1,$2,$3,$4,$5,0*
20,1,$1+$1,$4,$5,$6,$7,0*
20,1,$1+$1,$6,$7,$8,$9,0*
20,1,$1+$1,$8,$9,$2,$3,0*%
G04 Aperture macros list end*
%TA.AperFunction,ComponentPad*%
%ADD10C,1.900000*%
%TD*%
%TA.AperFunction,ComponentPad*%
%ADD11RoundRect,0.250001X1.099999X1.399999X-1.099999X1.399999X-1.099999X-1.399999X1.099999X-1.399999X0*%
%TD*%
%TA.AperFunction,ComponentPad*%
%ADD12O,2.700000X3.300000*%
%TD*%
%TA.AperFunction,ComponentPad*%
%ADD13R,1.700000X1.700000*%
%TD*%
%TA.AperFunction,ComponentPad*%
%ADD14O,1.700000X1.700000*%
%TD*%
%TA.AperFunction,ViaPad*%
%ADD15C,0.600000*%
%TD*%
%TA.AperFunction,Conductor*%
%ADD16C,0.500000*%
%TD*%
G04 APERTURE END LIST*
D10*
%TO.N,+24V*%
%TO.C,PS1*%
X157734000Y-104976000D03*
%TO.N,GNDPWR*%
X152654000Y-104976000D03*
%TO.N,+5V*%
X165354000Y-84656000D03*
%TO.N,Net-(PS1-TRIM)*%
X155194000Y-84656000D03*
%TO.N,GND*%
X145034000Y-84656000D03*
%TO.N,unconnected-(PS1-R.C.-Pad6)*%
X145034000Y-104976000D03*
%TD*%
D11*
%TO.N,+24V*%
%TO.C,J3*%
X144780000Y-118291000D03*
D12*
%TO.N,unconnected-(J3-Pin_2-Pad2)*%
X140598000Y-118291000D03*
%TO.N,unconnected-(J3-Pin_3-Pad3)*%
X136398000Y-118291000D03*
%TO.N,unconnected-(J3-Pin_4-Pad4)*%
X132207000Y-118291000D03*
%TO.N,unconnected-(J3-Pin_5-Pad5)*%
X127998000Y-118291000D03*
%TO.N,GNDPWR*%
X144780000Y-114091000D03*
%TO.N,unconnected-(J3-Pin_7-Pad7)*%
X140598000Y-114091000D03*
%TO.N,CANH*%
X136398000Y-114091000D03*
%TO.N,CANL*%
X132207000Y-114091000D03*
%TO.N,GND_CAN*%
X127998000Y-114091000D03*
%TD*%
D13*
%TO.N,unconnected-(J2-Pin_1-Pad1)*%
%TO.C,J2*%
X164370000Y-111270000D03*
D14*
%TO.N,unconnected-(J2-Pin_2-Pad2)*%
X166910000Y-111270000D03*
%TO.N,unconnected-(J2-Pin_3-Pad3)*%
X164370000Y-113810000D03*
%TO.N,unconnected-(J2-Pin_4-Pad4)*%
X166910000Y-113810000D03*
%TD*%
D13*
%TO.N,+3.3V*%
%TO.C,J1*%
X112510000Y-70810000D03*
D14*
%TO.N,+5V*%
X112510000Y-68270000D03*
%TO.N,unconnected-(J1-Pin_3-Pad3)*%
X115050000Y-70810000D03*
%TO.N,+5V*%
X115050000Y-68270000D03*
%TO.N,unconnected-(J1-Pin_5-Pad5)*%
X117590000Y-70810000D03*
%TO.N,GND*%
X117590000Y-68270000D03*
%TO.N,unconnected-(J1-Pin_7-Pad7)*%
X120130000Y-70810000D03*
%TO.N,unconnected-(J1-Pin_8-Pad8)*%
X120130000Y-68270000D03*
%TO.N,GND*%
X122670000Y-70810000D03*
%TO.N,unconnected-(J1-Pin_10-Pad10)*%
X122670000Y-68270000D03*
%TO.N,GPIO_17*%
X125210000Y-70810000D03*
%TO.N,GPIO_18*%
X125210000Y-68270000D03*
%TO.N,GPIO_27*%
X127750000Y-70810000D03*
%TO.N,GND*%
X127750000Y-68270000D03*
%TO.N,GPIO_22*%
X130290000Y-70810000D03*
%TO.N,GPIO_23*%
X130290000Y-68270000D03*
%TO.N,+3.3V*%
X132830000Y-70810000D03*
%TO.N,GPIO_24*%
X132830000Y-68270000D03*
%TO.N,SPI_MOSI*%
X135370000Y-70810000D03*
%TO.N,GND*%
X135370000Y-68270000D03*
%TO.N,SPI_MISO*%
X137910000Y-70810000D03*
%TO.N,~{INT}*%
X137910000Y-68270000D03*
%TO.N,SPI_SCLK*%
X140450000Y-70810000D03*
%TO.N,CE0*%
X140450000Y-68270000D03*
%TO.N,GND*%
X142990000Y-70810000D03*
%TO.N,CE1*%
X142990000Y-68270000D03*
%TO.N,unconnected-(J1-Pin_27-Pad27)*%
X145530000Y-70810000D03*
%TO.N,unconnected-(J1-Pin_28-Pad28)*%
X145530000Y-68270000D03*
%TO.N,GPIO_5*%
X148070000Y-70810000D03*
%TO.N,GND*%
X148070000Y-68270000D03*
%TO.N,GPIO_6*%
X150610000Y-70810000D03*
%TO.N,GPIO_12*%
X150610000Y-68270000D03*
%TO.N,GPIO_13*%
X153150000Y-70810000D03*
%TO.N,GND*%
X153150000Y-68270000D03*
%TO.N,GPIO_19*%
X155690000Y-70810000D03*
%TO.N,GPIO_16*%
X155690000Y-68270000D03*
%TO.N,GPIO_26*%
X158230000Y-70810000D03*
%TO.N,GPIO_20*%
X158230000Y-68270000D03*
%TO.N,GND*%
X160770000Y-70810000D03*
%TO.N,GPIO_21*%
X160770000Y-68270000D03*
%TD*%
D15*
%TO.N,GNDPWR*%
X162306000Y-116706000D03*
%TO.N,Net-(D1-Visoin)*%
X133096000Y-101974000D03*
X123444000Y-101974000D03*
%TO.N,+5V*%
X124714000Y-85718000D03*
X126238000Y-76320000D03*
X126238000Y-74796000D03*
X108712000Y-76320000D03*
X147828000Y-75304000D03*
X147828000Y-73018000D03*
X147828000Y-76066000D03*
X126238000Y-73272000D03*
X108712000Y-77082000D03*
X147828000Y-73780000D03*
X147828000Y-74542000D03*
X107442000Y-96640000D03*
X147828000Y-76828000D03*
X126238000Y-75558000D03*
X126238000Y-74034000D03*
X126238000Y-77082000D03*
%TO.N,+3.3V*%
X127762000Y-85718000D03*
X145796000Y-73780000D03*
X129032000Y-76828000D03*
X110490000Y-96640000D03*
%TO.N,GND*%
X122174000Y-80892000D03*
X110998000Y-80892000D03*
X139192000Y-85972000D03*
X135890000Y-86734000D03*
X140208000Y-91560000D03*
X123952000Y-83432000D03*
X110998000Y-85972000D03*
X147828000Y-79876000D03*
X112776000Y-83432000D03*
X120396000Y-83432000D03*
X140970000Y-79876000D03*
X109220000Y-83432000D03*
%TO.N,GND_CAN*%
X133096000Y-106038000D03*
X136144000Y-100704000D03*
X120396000Y-100704000D03*
X124460000Y-106038000D03*
%TO.N,+24V*%
X162306000Y-118738000D03*
%TD*%
D16*
%TO.N,Net-(D1-Visoin)*%
X123444000Y-101974000D02*
X133096000Y-101974000D01*
%TO.N,+5V*%
X105918000Y-95116000D02*
X105918000Y-74862000D01*
X124714000Y-82371339D02*
X124714000Y-85718000D01*
X107442000Y-96640000D02*
X105918000Y-95116000D01*
X108712000Y-77082000D02*
X119424661Y-77082000D01*
X108712000Y-76320000D02*
X108712000Y-77082000D01*
X119424661Y-77082000D02*
X124714000Y-82371339D01*
X105918000Y-74862000D02*
X112510000Y-68270000D01*
%TO.N,+3.3V*%
X112510000Y-70810000D02*
X107442000Y-75878000D01*
X107442000Y-75878000D02*
X107442000Y-93592000D01*
X107442000Y-93592000D02*
X110490000Y-96640000D01*
%TD*%
%TA.AperFunction,Conductor*%
%TO.N,+5V*%
G36*
X145613079Y-72783685D02*
G01*
X145658834Y-72836489D01*
X145668778Y-72905647D01*
X145639753Y-72969203D01*
X145586995Y-73005042D01*
X145446476Y-73054211D01*
X145293737Y-73150184D01*
X145166184Y-73277737D01*
X145070211Y-73430476D01*
X145010631Y-73600745D01*
X145010630Y-73600750D01*
X144990435Y-73779996D01*
X144990435Y-73780003D01*
X145010630Y-73959249D01*
X145010631Y-73959254D01*
X145070211Y-74129523D01*
X145166184Y-74282262D01*
X145293738Y-74409816D01*
X145446478Y-74505789D01*
X145616745Y-74565368D01*
X145616750Y-74565369D01*
X145795996Y-74585565D01*
X145796000Y-74585565D01*
X145796004Y-74585565D01*
X145975249Y-74565369D01*
X145975252Y-74565368D01*
X145975255Y-74565368D01*
X146145522Y-74505789D01*
X146298262Y-74409816D01*
X146425816Y-74282262D01*
X146521789Y-74129522D01*
X146581368Y-73959255D01*
X146601565Y-73780000D01*
X146599079Y-73757938D01*
X146581369Y-73600750D01*
X146581368Y-73600745D01*
X146574482Y-73581065D01*
X146521789Y-73430478D01*
X146425816Y-73277738D01*
X146298262Y-73150184D01*
X146145523Y-73054211D01*
X146005005Y-73005042D01*
X145948229Y-72964320D01*
X145922482Y-72899367D01*
X145935938Y-72830806D01*
X145984325Y-72780403D01*
X146045960Y-72764000D01*
X147329907Y-72764000D01*
X147342061Y-72764597D01*
X147518941Y-72782018D01*
X147542769Y-72786757D01*
X147707001Y-72836576D01*
X147729453Y-72845877D01*
X147880798Y-72926772D01*
X147901010Y-72940277D01*
X148033666Y-73049145D01*
X148050854Y-73066333D01*
X148159722Y-73198989D01*
X148173227Y-73219201D01*
X148254121Y-73370543D01*
X148263424Y-73393001D01*
X148313240Y-73557224D01*
X148317982Y-73581065D01*
X148335403Y-73757938D01*
X148336000Y-73770092D01*
X148336000Y-76583907D01*
X148335403Y-76596061D01*
X148317982Y-76772934D01*
X148313240Y-76796775D01*
X148263424Y-76960998D01*
X148254121Y-76983456D01*
X148173227Y-77134798D01*
X148159722Y-77155010D01*
X148050854Y-77287666D01*
X148033666Y-77304854D01*
X147901010Y-77413722D01*
X147880798Y-77427227D01*
X147729456Y-77508121D01*
X147706998Y-77517424D01*
X147542775Y-77567240D01*
X147518934Y-77571982D01*
X147342061Y-77589403D01*
X147329907Y-77590000D01*
X129701440Y-77590000D01*
X129634401Y-77570315D01*
X129588646Y-77517511D01*
X129578702Y-77448353D01*
X129607727Y-77384797D01*
X129613759Y-77378319D01*
X129661816Y-77330262D01*
X129757789Y-77177522D01*
X129817368Y-77007255D01*
X129817369Y-77007249D01*
X129837565Y-76828003D01*
X129837565Y-76827996D01*
X129817369Y-76648750D01*
X129817368Y-76648745D01*
X129757788Y-76478476D01*
X129661815Y-76325737D01*
X129534262Y-76198184D01*
X129381523Y-76102211D01*
X129211254Y-76042631D01*
X129211249Y-76042630D01*
X129032004Y-76022435D01*
X129031996Y-76022435D01*
X128852750Y-76042630D01*
X128852745Y-76042631D01*
X128682476Y-76102211D01*
X128529737Y-76198184D01*
X128402184Y-76325737D01*
X128306211Y-76478476D01*
X128246631Y-76648745D01*
X128246630Y-76648750D01*
X128226435Y-76827996D01*
X128226435Y-76828003D01*
X128246630Y-77007249D01*
X128246631Y-77007254D01*
X128306211Y-77177523D01*
X128402184Y-77330262D01*
X128450241Y-77378319D01*
X128483726Y-77439642D01*
X128478742Y-77509334D01*
X128436870Y-77565267D01*
X128371406Y-77589684D01*
X128362560Y-77590000D01*
X126482093Y-77590000D01*
X126469939Y-77589403D01*
X126293065Y-77571982D01*
X126269224Y-77567240D01*
X126105001Y-77517424D01*
X126082543Y-77508121D01*
X125931201Y-77427227D01*
X125910989Y-77413722D01*
X125778333Y-77304854D01*
X125761145Y-77287666D01*
X125652277Y-77155010D01*
X125638772Y-77134798D01*
X125557877Y-76983453D01*
X125548575Y-76960998D01*
X125508230Y-76827996D01*
X125498757Y-76796769D01*
X125494018Y-76772941D01*
X125476597Y-76596061D01*
X125476000Y-76583907D01*
X125476000Y-73770092D01*
X125476597Y-73757938D01*
X125494018Y-73581056D01*
X125498757Y-73557232D01*
X125548577Y-73392994D01*
X125557875Y-73370549D01*
X125638775Y-73219195D01*
X125652272Y-73198995D01*
X125761149Y-73066328D01*
X125778328Y-73049149D01*
X125910995Y-72940272D01*
X125931195Y-72926775D01*
X126082549Y-72845875D01*
X126104994Y-72836577D01*
X126269232Y-72786757D01*
X126293056Y-72782018D01*
X126469939Y-72764597D01*
X126482093Y-72764000D01*
X145546040Y-72764000D01*
X145613079Y-72783685D01*
G37*
%TD.AperFunction*%
%TD*%
M02*
