%TF.GenerationSoftware,KiCad,Pcbnew,8.0.3-8.0.3-0~ubuntu23.10.1*%
%TF.CreationDate,2024-09-16T17:13:33+03:00*%
%TF.ProjectId,Raspberry Pi 5 shield,52617370-6265-4727-9279-205069203520,rev?*%
%TF.SameCoordinates,Original*%
%TF.FileFunction,Soldermask,Bot*%
%TF.FilePolarity,Negative*%
%FSLAX46Y46*%
G04 Gerber Fmt 4.6, Leading zero omitted, Abs format (unit mm)*
G04 Created by KiCad (PCBNEW 8.0.3-8.0.3-0~ubuntu23.10.1) date 2024-09-16 17:13:33*
%MOMM*%
%LPD*%
G01*
G04 APERTURE LIST*
G04 Aperture macros list*
%AMRoundRect*
0 Rectangle with rounded corners*
0 $1 Rounding radius*
0 $2 $3 $4 $5 $6 $7 $8 $9 X,Y pos of 4 corners*
0 Add a 4 corners polygon primitive as box body*
4,1,4,$2,$3,$4,$5,$6,$7,$8,$9,$2,$3,0*
0 Add four circle primitives for the rounded corners*
1,1,$1+$1,$2,$3*
1,1,$1+$1,$4,$5*
1,1,$1+$1,$6,$7*
1,1,$1+$1,$8,$9*
0 Add four rect primitives between the rounded corners*
20,1,$1+$1,$2,$3,$4,$5,0*
20,1,$1+$1,$4,$5,$6,$7,0*
20,1,$1+$1,$6,$7,$8,$9,0*
20,1,$1+$1,$8,$9,$2,$3,0*%
G04 Aperture macros list end*
%ADD10C,1.900000*%
%ADD11C,3.200000*%
%ADD12RoundRect,0.250001X1.099999X1.399999X-1.099999X1.399999X-1.099999X-1.399999X1.099999X-1.399999X0*%
%ADD13O,2.700000X3.300000*%
%ADD14R,1.700000X1.700000*%
%ADD15O,1.700000X1.700000*%
%ADD16RoundRect,0.250000X-0.475000X0.337500X-0.475000X-0.337500X0.475000X-0.337500X0.475000X0.337500X0*%
G04 APERTURE END LIST*
D10*
%TO.C,PS1*%
X157734000Y-104976000D03*
X152654000Y-104976000D03*
X165354000Y-84656000D03*
X155194000Y-84656000D03*
X145034000Y-84656000D03*
X145034000Y-104976000D03*
%TD*%
D11*
%TO.C,H6*%
X107640000Y-112540000D03*
%TD*%
D12*
%TO.C,J3*%
X144780000Y-118291000D03*
D13*
X140598000Y-118291000D03*
X136398000Y-118291000D03*
X132207000Y-118291000D03*
X127998000Y-118291000D03*
X144780000Y-114091000D03*
X140598000Y-114091000D03*
X136398000Y-114091000D03*
X132207000Y-114091000D03*
X127998000Y-114091000D03*
%TD*%
D11*
%TO.C,H5*%
X165640000Y-75540000D03*
%TD*%
D14*
%TO.C,J2*%
X164370000Y-111270000D03*
D15*
X166910000Y-111270000D03*
X164370000Y-113810000D03*
X166910000Y-113810000D03*
%TD*%
D14*
%TO.C,J1*%
X112510000Y-70810000D03*
D15*
X112510000Y-68270000D03*
X115050000Y-70810000D03*
X115050000Y-68270000D03*
X117590000Y-70810000D03*
X117590000Y-68270000D03*
X120130000Y-70810000D03*
X120130000Y-68270000D03*
X122670000Y-70810000D03*
X122670000Y-68270000D03*
X125210000Y-70810000D03*
X125210000Y-68270000D03*
X127750000Y-70810000D03*
X127750000Y-68270000D03*
X130290000Y-70810000D03*
X130290000Y-68270000D03*
X132830000Y-70810000D03*
X132830000Y-68270000D03*
X135370000Y-70810000D03*
X135370000Y-68270000D03*
X137910000Y-70810000D03*
X137910000Y-68270000D03*
X140450000Y-70810000D03*
X140450000Y-68270000D03*
X142990000Y-70810000D03*
X142990000Y-68270000D03*
X145530000Y-70810000D03*
X145530000Y-68270000D03*
X148070000Y-70810000D03*
X148070000Y-68270000D03*
X150610000Y-70810000D03*
X150610000Y-68270000D03*
X153150000Y-70810000D03*
X153150000Y-68270000D03*
X155690000Y-70810000D03*
X155690000Y-68270000D03*
X158230000Y-70810000D03*
X158230000Y-68270000D03*
X160770000Y-70810000D03*
X160770000Y-68270000D03*
%TD*%
D16*
%TO.C,C11*%
X129032000Y-78584500D03*
X129032000Y-80659500D03*
%TD*%
M02*
