M48
; DRILL file {KiCad 8.0.3-8.0.3-0~ubuntu23.10.1} date 2024-09-16T17:13:40+0300
; FORMAT={-:-/ absolute / inch / decimal}
; #@! TF.CreationDate,2024-09-16T17:13:40+03:00
; #@! TF.GenerationSoftware,Kicad,Pcbnew,8.0.3-8.0.3-0~ubuntu23.10.1
; #@! TF.FileFunction,Plated,1,4,PTH
FMAT,2
INCH
; #@! TA.AperFunction,Plated,PTH,ViaDrill
T1C0.0118
; #@! TA.AperFunction,Plated,PTH,ComponentDrill
T2C0.0394
; #@! TA.AperFunction,Plated,PTH,ComponentDrill
T3C0.0512
; #@! TA.AperFunction,Plated,PTH,ComponentDrill
T4C0.0551
%
G90
G05
T1
X4.23Y-3.8047
X4.28Y-3.0047
X4.28Y-3.0347
X4.3Y-3.2847
X4.35Y-3.8047
X4.37Y-3.1847
X4.37Y-3.3847
X4.44Y-3.2847
X4.74Y-3.2847
X4.74Y-3.9647
X4.81Y-3.1847
X4.86Y-4.0147
X4.88Y-3.2847
X4.9Y-4.1747
X4.91Y-3.3747
X4.97Y-2.8847
X4.97Y-2.9147
X4.97Y-2.9447
X4.97Y-2.9747
X4.97Y-3.0047
X4.97Y-3.0347
X5.03Y-3.3747
X5.08Y-3.0247
X5.24Y-4.0147
X5.24Y-4.1747
X5.35Y-3.4147
X5.36Y-3.9647
X5.48Y-3.3847
X5.52Y-3.6047
X5.55Y-3.1447
X5.74Y-2.9047
X5.82Y-2.8747
X5.82Y-2.9047
X5.82Y-2.9347
X5.82Y-2.9647
X5.82Y-2.9947
X5.82Y-3.0247
X5.82Y-3.1447
X6.39Y-4.5947
X6.39Y-4.6747
T2
X4.4295Y-2.6878
X4.4295Y-2.7878
X4.5295Y-2.6878
X4.5295Y-2.7878
X4.6295Y-2.6878
X4.6295Y-2.7878
X4.7295Y-2.6878
X4.7295Y-2.7878
X4.8295Y-2.6878
X4.8295Y-2.7878
X4.9295Y-2.6878
X4.9295Y-2.7878
X5.0295Y-2.6878
X5.0295Y-2.7878
X5.1295Y-2.6878
X5.1295Y-2.7878
X5.2295Y-2.6878
X5.2295Y-2.7878
X5.3295Y-2.6878
X5.3295Y-2.7878
X5.4295Y-2.6878
X5.4295Y-2.7878
X5.5295Y-2.6878
X5.5295Y-2.7878
X5.6295Y-2.6878
X5.6295Y-2.7878
X5.7295Y-2.6878
X5.7295Y-2.7878
X5.8295Y-2.6878
X5.8295Y-2.7878
X5.9295Y-2.6878
X5.9295Y-2.7878
X6.0295Y-2.6878
X6.0295Y-2.7878
X6.1295Y-2.6878
X6.1295Y-2.7878
X6.2295Y-2.6878
X6.2295Y-2.7878
X6.3295Y-2.6878
X6.3295Y-2.7878
X6.4713Y-4.3807
X6.4713Y-4.4807
X6.5713Y-4.3807
X6.5713Y-4.4807
T3
X5.71Y-3.3329
X5.71Y-4.1329
X6.01Y-4.1329
X6.11Y-3.3329
X6.21Y-4.1329
X6.51Y-3.3329
T4
X5.0393Y-4.4918
X5.0393Y-4.6571
X5.205Y-4.4918
X5.205Y-4.6571
X5.37Y-4.4918
X5.37Y-4.6571
X5.5354Y-4.4918
X5.5354Y-4.6571
X5.7Y-4.4918
X5.7Y-4.6571
M30
